<?xml version="1.0" encoding="iso-8859-1"?>
<!-- Generator: Adobe Illustrator 19.0.0, SVG Export Plug-In . SVG Version: 6.00 Build 0)  -->
<svg version="1.1" id="Layer_1" xmlns="http://www.w3.org/2000/svg" xmlns:xlink="http://www.w3.org/1999/xlink" x="0px" y="0px"
	 viewBox="0 0 512 512" style="enable-background:new 0 0 512 512;" xml:space="preserve">
<circle style="fill:#273B7A;" cx="256" cy="256" r="256"/>
<path style="fill:#121149;" d="M300.408,508.152c108.339-18.949,193.236-106.01,208.958-215.424L389.239,171.292l-54.513,19.199
	l-52.127,6.034l-144.843,58.921l76.552,75.719l-0.145,90.078L300.408,508.152z"/>
<path style="fill:#FF7F4F;" d="M213.28,421.243c-1.903,0-3.448-1.545-3.448-3.448V288.034c0-1.903,1.545-3.448,3.448-3.448
	s3.448,1.545,3.448,3.448v129.762C216.728,419.7,215.183,421.243,213.28,421.243z"/>
<path style="fill:#D35933;" d="M213.28,284.586c-0.031,0-0.059,0.009-0.09,0.009v136.64c0.031,0,0.059,0.009,0.09,0.009
	c1.903,0,3.448-1.545,3.448-3.448V288.034C216.728,286.13,215.183,284.586,213.28,284.586z"/>
<path style="fill:#FEE187;" d="M227.733,303.944h-28.908c-2.698,0-4.453-2.839-3.246-5.253l9.921-19.844
	c0.615-1.229,1.872-2.007,3.246-2.007h9.064c1.376,0,2.632,0.777,3.246,2.007l9.921,19.844
	C232.186,301.104,230.431,303.944,227.733,303.944z"/>
<path style="fill:#FFC61B;" d="M230.979,298.691l-9.921-19.842c-0.615-1.229-1.872-2.007-3.246-2.007h-4.62v27.103h14.543
	C230.431,303.944,232.186,301.104,230.979,298.691z"/>
<path style="fill:#FF7F4F;" d="M324.33,421.243c-1.903,0-3.448-1.545-3.448-3.448V311.424c0-1.903,1.545-3.448,3.448-3.448
	s3.448,1.545,3.448,3.448v106.372C327.778,419.7,326.234,421.243,324.33,421.243z"/>
<path style="fill:#D35933;" d="M324.33,307.976c-0.081,0-0.157,0.017-0.234,0.024v113.221c0.079,0.005,0.155,0.024,0.234,0.024
	c1.903,0,3.448-1.545,3.448-3.448V311.424C327.778,309.52,326.234,307.976,324.33,307.976z"/>
<path style="fill:#FFAD9E;" d="M336.179,324.467h-23.697c-2.212,0-3.651-2.327-2.662-4.306l8.133-16.267
	c0.503-1.008,1.534-1.645,2.662-1.645h7.43c1.127,0,2.157,0.636,2.662,1.645l8.133,16.267
	C339.828,322.139,338.391,324.467,336.179,324.467z"/>
<g>
	<path style="fill:#FF6262;" d="M338.839,320.16l-8.133-16.267c-0.503-1.008-1.534-1.645-2.662-1.645h-3.949v22.218h12.083
		C338.389,324.467,339.828,322.139,338.839,320.16z"/>
	<circle style="fill:#FF6262;" cx="324.336" cy="226.332" r="85.092"/>
</g>
<path style="fill:#FF314F;" d="M324.329,141.228c-0.079,0-0.157,0.005-0.234,0.005v170.184c0.079,0,0.157,0.005,0.234,0.005
	c46.999,0,85.099-38.1,85.099-85.099S371.328,141.228,324.329,141.228z"/>
<path style="fill:#FFFFFF;" d="M322.251,261.073c0.995,1.467,3.162,1.467,4.156,0c7.945-11.723,35.957-26.279,35.957-45.128
	c0-12.998-8.514-19.018-19.018-19.018c-10.504,0-19.018,8.514-19.018,19.018c0-10.504-8.514-19.018-19.018-19.018
	c-10.504,0-19.018,6.02-19.018,19.018C286.292,234.792,314.306,249.349,322.251,261.073z"/>
<path style="fill:#D0D1D3;" d="M324.094,262.146c0.865,0.081,1.765-0.267,2.313-1.074c7.945-11.723,35.957-26.281,35.957-45.128
	c0-13-8.514-19.018-19.018-19.018c-10.504,0-19.018,8.514-19.018,19.018L324.094,262.146z"/>
<circle style="fill:#FFC61B;" cx="213.282" cy="184.217" r="103.814"/>
<path style="fill:#EAA22F;" d="M213.278,80.412c-0.029,0-0.059,0.002-0.088,0.002V288.03c0.029,0,0.059,0.002,0.088,0.002
	c57.334,0,103.812-46.478,103.812-103.81S270.612,80.412,213.278,80.412z"/>
<path style="fill:#FF314F;" d="M210.744,226.609c1.214,1.791,3.856,1.791,5.07,0c9.693-14.3,43.865-32.059,43.865-55.053
	c0-15.858-10.387-23.2-23.2-23.2c-12.814,0-23.2,10.387-23.2,23.2c0-12.814-10.387-23.2-23.2-23.2c-12.814,0-23.2,7.342-23.2,23.2
	C166.879,194.551,201.051,212.309,210.744,226.609z"/>
<path style="fill:#A30F44;" d="M213.19,227.942c0.993,0.028,1.998-0.41,2.624-1.333c9.693-14.3,43.865-32.059,43.865-55.053
	c0-15.858-10.387-23.2-23.2-23.2c-12.814,0-23.2,10.387-23.2,23.2L213.19,227.942z"/>
<g>
</g>
<g>
</g>
<g>
</g>
<g>
</g>
<g>
</g>
<g>
</g>
<g>
</g>
<g>
</g>
<g>
</g>
<g>
</g>
<g>
</g>
<g>
</g>
<g>
</g>
<g>
</g>
<g>
</g>
</svg>
