<?xml version="1.0" encoding="iso-8859-1"?>
<!-- Generator: Adobe Illustrator 19.0.0, SVG Export Plug-In . SVG Version: 6.00 Build 0)  -->
<svg version="1.1" id="Layer_1" xmlns="http://www.w3.org/2000/svg" xmlns:xlink="http://www.w3.org/1999/xlink" x="0px" y="0px"
	 viewBox="0 0 512 512" style="enable-background:new 0 0 512 512;" xml:space="preserve">
<circle style="fill:#273B7A;" cx="256" cy="256" r="256"/>
<g>
	<path style="fill:#121149;" d="M488.884,362.429L221.077,94.623l-13.921,10.535l-6.322,3.879l-18.746,22.054l105.408,105.408
		l-19.016,11.743l-57.873,43.584l56.835,56.835l-53.248,7.756l-6.823,2.801l-10.833,10.064l-1.174,0.341l0.388,0.388l-60.98,56.654
		l82.406,82.406C229.84,511,242.802,512,256,512C359.408,512,448.484,450.682,488.884,362.429z"/>
	<path style="fill:#121149;" d="M361.858,157.594l-12.128,7.254l-2.938,2.37l-24.614,25.414L489.846,360.3
		c8.033-17.984,14.046-37.064,17.767-56.953L361.858,157.594z"/>
</g>
<circle style="fill:#FFC61B;" cx="339.609" cy="172.391" r="26.721"/>
<g>
	<path style="fill:#EAA22F;" d="M339.609,145.67c14.757,0,26.721,11.964,26.721,26.721c0,14.757-11.964,26.721-26.721,26.721V145.67
		z"/>
	<circle style="fill:#EAA22F;" cx="339.609" cy="172.391" r="20.242"/>
</g>
<path style="fill:#FF5419;" d="M339.609,152.148c11.18,0,20.242,9.063,20.242,20.242c0,11.18-9.063,20.242-20.242,20.242V152.148z"
	/>
<circle style="fill:#FFC61B;" cx="200.835" cy="112.054" r="26.721"/>
<g>
	<path style="fill:#EAA22F;" d="M200.835,85.333c14.757,0,26.721,11.964,26.721,26.721s-11.964,26.721-26.721,26.721V85.333z"/>
	<circle style="fill:#EAA22F;" cx="200.835" cy="112.054" r="20.242"/>
</g>
<path style="fill:#FF5419;" d="M200.835,91.812c11.18,0,20.242,9.063,20.242,20.242s-9.063,20.242-20.242,20.242L200.835,91.812
	L200.835,91.812z"/>
<path style="fill:#FFEDB5;" d="M373.281,328.816c-2.708-3.763-7.63-5.244-11.969-3.615c-0.062,0.024-0.124,0.047-0.188,0.067
	l-73.463,24.457c0.016,0.59,0.003,1.184-0.034,1.783c-0.614,9.382-7.868,16.917-17.191,17.863l-44.273,4.598
	c-2.801,0.293-5.304-1.743-5.596-4.543c-0.293-2.801,1.743-5.37,4.542-5.596l44.273-4.598c4.37-0.476,7.783-3.984,8.071-8.389
	c0.157-2.405-0.633-4.727-2.222-6.537c-1.589-1.812-3.791-2.896-6.196-3.053l-58.782-3.832c-6.603-0.428-13.155,1.029-18.953,4.22
	l-77.524,42.691l20.995,42.334l19.473-16.989c8.271-7.215,19.227-10.323,30.058-8.523l65.093,10.818
	c11.928,1.586,23.886-1.389,33.68-8.376l88.626-61.037C375.663,339.099,376.367,333.103,373.281,328.816z"/>
<g>
	<path style="fill:#FEE187;" d="M269.383,359.233c4.37-0.476,7.783-3.984,8.071-8.389c0.157-2.405-0.633-4.727-2.222-6.537
		c-1.589-1.812-3.791-2.896-6.196-3.053l-13.072-0.852v20.225L269.383,359.233z"/>
	<path style="fill:#FEE187;" d="M373.281,328.816c-2.708-3.763-7.63-5.244-11.969-3.613c-0.062,0.024-0.124,0.047-0.186,0.067
		l-73.463,24.457c0.016,0.59,0.003,1.184-0.034,1.783c-0.614,9.382-7.868,16.917-17.191,17.863l-14.47,1.503v41.512
		c9.683-0.059,19.118-3.088,27.112-8.788l88.626-61.035C375.663,339.099,376.367,333.103,373.281,328.816z"/>
</g>
<circle style="fill:#FFC61B;" cx="256" cy="253.414" r="59.475"/>
<g>
	<path style="fill:#EAA22F;" d="M256,193.939c-0.012,0-0.022,0-0.034,0v118.949c0.012,0,0.022,0,0.034,0
		c32.847,0,59.475-26.627,59.475-59.475S288.846,193.939,256,193.939z"/>
	<circle style="fill:#EAA22F;" cx="256" cy="253.414" r="40.884"/>
</g>
<path style="fill:#FF5419;" d="M256,212.53c-0.012,0-0.022,0-0.034,0v81.768c0.012,0,0.022,0,0.034,0
	c22.58,0,40.884-18.304,40.884-40.884S278.58,212.53,256,212.53z"/>
<path style="fill:#FFEDB5;" d="M254.633,277.578c0.653,0.965,2.077,0.965,2.732,0c5.222-7.704,23.631-17.27,23.631-29.658
	c0-8.542-5.596-12.498-12.498-12.498c-6.903,0-12.498,5.596-12.498,12.498c0-6.903-5.596-12.498-12.498-12.498
	s-12.498,3.956-12.498,12.498C231.003,260.308,249.411,269.874,254.633,277.578z"/>
<path style="fill:#FEE187;" d="M268.498,235.422c-6.903,0-12.498,5.596-12.498,12.498c0-0.231-0.022-0.455-0.034-0.684v31.056
	c0.531,0.012,1.065-0.222,1.4-0.715c5.222-7.704,23.631-17.27,23.631-29.658C280.997,239.378,275.401,235.422,268.498,235.422z"/>
<g>
</g>
<g>
</g>
<g>
</g>
<g>
</g>
<g>
</g>
<g>
</g>
<g>
</g>
<g>
</g>
<g>
</g>
<g>
</g>
<g>
</g>
<g>
</g>
<g>
</g>
<g>
</g>
<g>
</g>
</svg>
