<?xml version="1.0" encoding="iso-8859-1"?>
<!-- Generator: Adobe Illustrator 19.0.0, SVG Export Plug-In . SVG Version: 6.00 Build 0)  -->
<svg version="1.1" id="Layer_1" xmlns="http://www.w3.org/2000/svg" xmlns:xlink="http://www.w3.org/1999/xlink" x="0px" y="0px"
	 viewBox="0 0 512 512" style="enable-background:new 0 0 512 512;" xml:space="preserve">
<circle style="fill:#71E2EF;" cx="256" cy="256" r="256"/>
<path style="fill:#38C6D9;" d="M509.762,289.894L321.146,102.907L154.483,223.534l-3.258,68.668l3.553,59.394l155.729,154.569
	C414.911,483.521,495.568,397.2,509.762,289.894z"/>
<path style="fill:#386895;" d="M287.301,136.752l33.845-33.845H190.854l33.845,33.845c-52.431,23.047-91.096,99.554-91.096,156.331
	c0,67.598,54.8,90.153,122.397,90.153s122.397-22.556,122.397-90.153C378.397,236.306,339.732,159.799,287.301,136.752z"/>
<path style="fill:#273B7A;" d="M287.301,136.752l33.845-33.845h-68.141v280.298c0.998,0.01,1.989,0.031,2.994,0.031
	c67.598,0,122.397-22.556,122.397-90.153C378.397,236.306,339.732,159.799,287.301,136.752z"/>
<path style="fill:#FFC61B;" d="M297.456,140.416h-82.915c-3.27,0-5.922-2.653-5.922-5.922c0-3.269,2.653-5.922,5.922-5.922h82.915
	c3.27,0,5.922,2.653,5.922,5.922C303.378,137.762,300.727,140.416,297.456,140.416z"/>
<path style="fill:#EAA22F;" d="M297.456,128.571h-44.451v11.845h44.451c3.27,0,5.922-2.653,5.922-5.923
	C303.38,131.222,300.727,128.571,297.456,128.571z"/>
<path style="fill:#FFAD9E;" d="M250.137,306.907c1.465,2.162,4.656,2.162,6.123,0c11.704-17.267,52.965-38.71,52.965-66.474
	c0-19.147-12.541-28.013-28.013-28.013c-15.472,0-28.013,12.541-28.013,28.013c0-15.472-12.541-28.013-28.013-28.013
	s-28.013,8.866-28.013,28.013C197.172,268.197,238.433,289.639,250.137,306.907z"/>
<path style="fill:#FF6262;" d="M281.212,212.418c-15.472,0-28.013,12.541-28.013,28.013c0-0.069-0.01-0.134-0.01-0.203v68.298
	c1.167,0.003,2.336-0.536,3.072-1.62c11.704-17.267,52.965-38.71,52.965-66.474C309.226,221.286,296.684,212.418,281.212,212.418z"
	/>
<g>
</g>
<g>
</g>
<g>
</g>
<g>
</g>
<g>
</g>
<g>
</g>
<g>
</g>
<g>
</g>
<g>
</g>
<g>
</g>
<g>
</g>
<g>
</g>
<g>
</g>
<g>
</g>
<g>
</g>
</svg>
