<?xml version="1.0" encoding="iso-8859-1"?>
<!-- Generator: Adobe Illustrator 19.0.0, SVG Export Plug-In . SVG Version: 6.00 Build 0)  -->
<svg version="1.1" id="Layer_1" xmlns="http://www.w3.org/2000/svg" xmlns:xlink="http://www.w3.org/1999/xlink" x="0px" y="0px"
	 viewBox="0 0 512 512" style="enable-background:new 0 0 512 512;" xml:space="preserve">
<circle style="fill:#273B7A;" cx="256" cy="256" r="256"/>
<g>
	<path style="fill:#121149;" d="M144.918,395.445l116.486,116.486c96.273-1.995,179.474-57.134,221.474-137.273L366.266,258.046
		l-19.73,14.279l-58.54-58.54l-26.462,21.461l-73.359-73.359l-13.774,10.502l-16.377,12.355l129.96,129.96l-0.833,0.602
		L144.918,395.445z"/>
	<path style="fill:#121149;" d="M319.34,110.139l-22.973,19.585l-17.513,15.276l212.304,212.304
		c7.925-18.37,13.755-37.85,17.201-58.146L319.34,110.139z"/>
</g>
<circle style="fill:#FFC61B;" cx="256" cy="241.347" r="42.236"/>
<g>
	<path style="fill:#EAA22F;" d="M255.998,199.111c23.326,0,42.236,18.91,42.236,42.236s-18.91,42.236-42.236,42.236V199.111z"/>
	<circle style="fill:#EAA22F;" cx="256" cy="241.347" r="31.997"/>
</g>
<path style="fill:#FF5419;" d="M255.998,209.349c17.672,0,31.997,14.326,31.997,31.997c0,17.672-14.326,31.997-31.997,31.997
	V209.349z"/>
<circle style="fill:#FFC61B;" cx="299.098" cy="127.569" r="26.721"/>
<g>
	<path style="fill:#EAA22F;" d="M299.096,100.848c14.757,0,26.721,11.964,26.721,26.721s-11.964,26.721-26.721,26.721V100.848z"/>
	<circle style="fill:#EAA22F;" cx="299.098" cy="127.569" r="20.242"/>
</g>
<path style="fill:#FF5419;" d="M299.096,107.327c11.18,0,20.242,9.063,20.242,20.242s-9.063,20.242-20.242,20.242V107.327z"/>
<circle style="fill:#FFC61B;" cx="172.391" cy="172.391" r="18.963"/>
<g>
	<path style="fill:#EAA22F;" d="M172.389,153.428c10.473,0,18.963,8.49,18.963,18.963c0,10.473-8.49,18.963-18.963,18.963V153.428z"
		/>
	<circle style="fill:#EAA22F;" cx="172.391" cy="172.391" r="14.365"/>
</g>
<path style="fill:#FF5419;" d="M172.389,158.025c7.933,0,14.365,6.432,14.365,14.365s-6.432,14.365-14.365,14.365V158.025z"/>
<path style="fill:#FF6262;" d="M151.559,398.222h208.88c5.156,0,9.338-4.18,9.338-9.338V265.337c0-5.156-4.18-9.338-9.338-9.338
	h-208.88c-5.156,0-9.338,4.18-9.338,9.338v123.547C142.22,394.042,146.401,398.222,151.559,398.222z"/>
<path style="fill:#FF314F;" d="M360.439,256H255.928v142.222h104.512c5.156,0,9.338-4.18,9.338-9.338V265.337
	C369.776,260.18,365.596,256,360.439,256z"/>
<path style="fill:#FFFFFF;" d="M253.692,366.763c1.105,1.629,3.512,1.629,4.615,0c8.823-13.017,39.927-29.181,39.927-50.11
	c0-14.434-9.456-21.118-21.118-21.118c-11.662,0-21.118,9.456-21.118,21.118c0-11.662-9.456-21.118-21.118-21.118
	c-11.662,0-21.118,6.684-21.118,21.118C213.763,337.582,244.869,353.745,253.692,366.763z"/>
<path style="fill:#D0D1D3;" d="M277.116,295.534c-11.664,0-21.118,9.454-21.118,21.118c0-0.476-0.04-0.943-0.071-1.41v52.736
	c0.902,0.022,1.812-0.378,2.379-1.214c8.823-13.017,39.927-29.181,39.927-50.11C298.234,302.218,288.78,295.534,277.116,295.534z"/>
<g>
</g>
<g>
</g>
<g>
</g>
<g>
</g>
<g>
</g>
<g>
</g>
<g>
</g>
<g>
</g>
<g>
</g>
<g>
</g>
<g>
</g>
<g>
</g>
<g>
</g>
<g>
</g>
<g>
</g>
</svg>
