<?xml version="1.0" encoding="iso-8859-1"?>
<!-- Generator: Adobe Illustrator 19.0.0, SVG Export Plug-In . SVG Version: 6.00 Build 0)  -->
<svg version="1.1" id="Layer_1" xmlns="http://www.w3.org/2000/svg" xmlns:xlink="http://www.w3.org/1999/xlink" x="0px" y="0px"
	 viewBox="0 0 512 512" style="enable-background:new 0 0 512 512;" xml:space="preserve">
<circle style="fill:#477F3C;" cx="256" cy="256" r="256"/>
<path style="fill:#2E5E24;" d="M349.836,134.439l-27.22-26.169l-36.59,47.528L159.315,232.3l133.637,133.637l-82.313,54.238
	l88.235,88.235c108.691-18.329,194.11-105.141,210.334-214.533L349.836,134.439z"/>
<rect x="243.071" y="227.556" style="fill:#D35933;" width="25.859" height="142.222"/>
<rect x="256" y="227.556" style="fill:#B54324;" width="12.929" height="142.222"/>
<path style="fill:#FEE187;" d="M330.866,121.922c-4.055-12.555-14.417-21.504-26.596-21.504c-3.539,0-6.915,0.79-10.04,2.167
	C284.131,91.872,270.726,85.333,256,85.333c-14.97,0-28.569,6.772-38.722,17.804c-3.456-1.743-7.265-2.72-11.271-2.72
	c-12.44,0-22.987,9.332-26.85,22.309c-21.575,9.431-36.935,33.701-36.935,62.162c0,36.655,25.471,66.37,56.889,66.37
	c2.493,0,4.941-0.207,7.349-0.571C216.226,270.836,234.746,256,256,256s39.774,14.836,49.54-5.311
	c2.408,0.362,4.856,0.571,7.349,0.571c31.418,0,56.889-29.715,56.889-66.37C369.778,155.565,353.471,130.701,330.866,121.922z"/>
<path style="fill:#FFC61B;" d="M330.866,121.922c-4.055-12.555-14.417-21.504-26.596-21.504c-3.539,0-6.915,0.79-10.04,2.167
	c-10.081-10.695-23.461-17.227-38.157-17.249v170.667c21.225,0.034,39.712,14.812,49.467-5.311c2.408,0.362,4.856,0.571,7.349,0.571
	c31.418,0,56.889-29.715,56.889-66.37C369.778,155.565,353.471,130.701,330.866,121.922z"/>
<path style="fill:#FF7F4F;" d="M269.667,327.666l14.777-14.777h-56.889l14.777,14.777c-22.892,10.062-39.774,43.467-39.774,68.256
	c0,29.515,23.926,39.362,53.441,39.362s53.441-9.849,53.441-39.362C309.441,371.134,292.559,337.729,269.667,327.666z"/>
<path style="fill:#D35933;" d="M309.441,395.924c0-24.79-16.882-58.194-39.774-68.256l14.777-14.779H256v122.397
	C285.515,435.286,309.441,425.438,309.441,395.924z"/>
<path style="fill:#FFEDB5;" d="M254.635,397.498c0.653,0.965,2.077,0.965,2.732,0c5.222-7.704,23.631-17.27,23.631-29.658
	c0-8.542-5.596-12.498-12.498-12.498c-6.903,0-12.498,5.596-12.498,12.498c0-6.903-5.596-12.498-12.498-12.498
	s-12.498,3.956-12.498,12.498C231.003,380.228,249.413,389.794,254.635,397.498z"/>
<path style="fill:#FEE187;" d="M268.498,355.344c-6.899,0-12.491,5.591-12.498,12.488v30.391c0.519,0,1.038-0.241,1.365-0.724
	c5.222-7.704,23.631-17.27,23.631-29.658C280.997,359.298,275.401,355.344,268.498,355.344z"/>
<path style="fill:#B54324;" d="M274.101,329.266h-36.202c-1.427,0-2.586-1.158-2.586-2.586s1.158-2.586,2.586-2.586h36.202
	c1.427,0,2.586,1.158,2.586,2.586S275.528,329.266,274.101,329.266z"/>
<path style="fill:#930000;" d="M274.101,324.094H256v5.172h18.101c1.427,0,2.586-1.158,2.586-2.586S275.528,324.094,274.101,324.094
	z"/>
<g>
</g>
<g>
</g>
<g>
</g>
<g>
</g>
<g>
</g>
<g>
</g>
<g>
</g>
<g>
</g>
<g>
</g>
<g>
</g>
<g>
</g>
<g>
</g>
<g>
</g>
<g>
</g>
<g>
</g>
</svg>
