<?xml version="1.0" encoding="iso-8859-1"?>
<!-- Generator: Adobe Illustrator 19.0.0, SVG Export Plug-In . SVG Version: 6.00 Build 0)  -->
<svg version="1.1" id="Layer_1" xmlns="http://www.w3.org/2000/svg" xmlns:xlink="http://www.w3.org/1999/xlink" x="0px" y="0px"
	 viewBox="0 0 512 512" style="enable-background:new 0 0 512 512;" xml:space="preserve">
<circle style="fill:#97EDF2;" cx="256" cy="256" r="256"/>
<g>
	<path style="fill:#38C6D9;" d="M132.641,248.91l-24.831,16.193l30.515,30.515l-40.674,26.305l37.766,37.766l-9.171,38.534
		l113.233,113.233C244.943,511.803,250.447,512,256,512c122.351,0,224.637-85.838,249.965-200.573L316.833,122.296l-35.175,38.129
		l-35.449-35.449l-47.106,57.946l54.286,54.286v52.498l-75.938-75.938l-27.753,21.763l-23.659-23.659L132.641,248.91z"/>
</g>
<path style="fill:#6CAF5F;" d="M135.396,331.662H122.88c-20.737,0-37.547-16.81-37.547-37.547l0,0h12.516
	C118.586,294.116,135.396,310.925,135.396,331.662L135.396,331.662z"/>
<path style="fill:#477F3C;" d="M135.396,331.662L135.396,331.662H122.88c-20.737,0-37.547-16.81-37.547-37.547l0,0L135.396,331.662z
	"/>
<path style="fill:#6CAF5F;" d="M256,312.889h-15.929c-26.391,0-47.787-21.395-47.787-47.787l0,0h15.929
	C234.605,265.102,256,286.498,256,312.889L256,312.889z"/>
<path style="fill:#477F3C;" d="M256,312.889L256,312.889h-15.929c-26.391,0-47.787-21.395-47.787-47.787l0,0L256,312.889z"/>
<path style="fill:#6CAF5F;" d="M361.112,332.231h-6.871c-11.386,0-20.616-9.23-20.616-20.616l0,0h6.871
	C351.88,311.615,361.112,320.845,361.112,332.231L361.112,332.231z"/>
<path style="fill:#477F3C;" d="M361.112,332.231L361.112,332.231h-6.871c-11.386,0-20.616-9.23-20.616-20.616l0,0L361.112,332.231z"
	/>
<path style="fill:#6CAF5F;" d="M366.283,315.509h8.62c14.281,0,25.859-11.578,25.859-25.859l0,0h-8.62
	C377.861,289.651,366.283,301.228,366.283,315.509L366.283,315.509z"/>
<path style="fill:#477F3C;" d="M366.283,315.509L366.283,315.509h8.62c14.281,0,25.859-11.578,25.859-25.859l0,0L366.283,315.509z"
	/>
<path style="fill:#6CAF5F;" d="M136.189,338.747h8.62c14.281,0,25.859-11.578,25.859-25.859l0,0h-8.62
	C147.766,312.889,136.189,324.467,136.189,338.747L136.189,338.747z"/>
<path style="fill:#477F3C;" d="M136.189,338.747L136.189,338.747h8.62c14.281,0,25.859-11.578,25.859-25.859l0,0L136.189,338.747z"
	/>
<path style="fill:#8BC180;" d="M19.904,355.125C58.644,447.283,149.761,512,256,512s197.356-64.717,236.096-156.875H19.904z"/>
<path style="fill:#6CAF5F;" d="M492.096,355.125H256V512C362.239,512,453.356,447.283,492.096,355.125z"/>
<rect x="249.104" y="199.111" style="fill:#477F3C;" width="13.791" height="199.111"/>
<rect x="255.431" y="199.111" style="fill:#2E5E24;" width="7.47" height="199.111"/>
<path style="fill:#FF314F;" d="M252.09,234.43c1.87,2.76,5.947,2.76,7.818,0c14.946-22.049,67.634-49.43,67.634-84.882
	c0-24.45-16.015-35.771-35.771-35.771c-19.756,0-35.771,16.015-35.771,35.771c0-19.756-16.015-35.771-35.771-35.771
	s-35.771,11.321-35.771,35.771C184.458,185.001,237.146,212.382,252.09,234.43z"/>
<path style="fill:#A30F44;" d="M291.771,113.778c-19.756,0-35.771,16.015-35.771,35.771c0-0.088-0.012-0.171-0.014-0.259v87.211
	c1.491,0.003,2.984-0.684,3.922-2.069c14.946-22.05,67.634-49.431,67.634-84.883C327.542,125.099,311.527,113.778,291.771,113.778z"
	/>
<rect x="126.242" y="262.775" style="fill:#477F3C;" width="13.791" height="135.447"/>
<rect x="133.034" y="262.775" style="fill:#2E5E24;" width="7.008" height="135.447"/>
<path style="fill:#FF314F;" d="M130.482,286.796c1.272,1.877,4.046,1.877,5.318,0c10.168-15,46.011-33.626,46.011-57.744
	c0-16.632-10.895-24.335-24.335-24.335c-13.44,0-24.335,10.895-24.335,24.335c0-13.44-10.895-24.335-24.335-24.335
	s-24.335,7.702-24.335,24.335C84.471,253.169,120.315,271.796,130.482,286.796z"/>
<path style="fill:#A30F44;" d="M157.475,204.717c-13.44,0-24.335,10.895-24.335,24.335c0-0.059-0.009-0.117-0.009-0.176v59.328
	c1.014,0.003,2.029-0.465,2.669-1.408c10.168-15,46.011-33.626,46.011-57.744C181.81,212.42,170.915,204.717,157.475,204.717z"/>
<rect x="354.659" y="262.775" style="fill:#477F3C;" width="13.791" height="135.447"/>
<rect x="361.727" y="262.775" style="fill:#2E5E24;" width="6.722" height="135.447"/>
<path style="fill:#FF314F;" d="M358.9,286.796c1.272,1.877,4.046,1.877,5.318,0c10.168-15,46.011-33.626,46.011-57.744
	c0-16.632-10.895-24.335-24.335-24.335c-13.44,0-24.335,10.895-24.335,24.335c0-13.44-10.895-24.335-24.335-24.335
	s-24.335,7.702-24.335,24.335C312.889,253.169,348.732,271.796,358.9,286.796z"/>
<path style="fill:#A30F44;" d="M385.893,204.717c-13.44,0-24.335,10.895-24.335,24.335c0-0.059-0.009-0.117-0.009-0.176v59.328
	c1.014,0.003,2.029-0.465,2.669-1.408c10.168-15,46.011-33.626,46.011-57.744C410.228,212.42,399.332,204.717,385.893,204.717z"/>
<g>
</g>
<g>
</g>
<g>
</g>
<g>
</g>
<g>
</g>
<g>
</g>
<g>
</g>
<g>
</g>
<g>
</g>
<g>
</g>
<g>
</g>
<g>
</g>
<g>
</g>
<g>
</g>
<g>
</g>
</svg>
