<?xml version="1.0" encoding="iso-8859-1"?>
<!-- Generator: Adobe Illustrator 19.0.0, SVG Export Plug-In . SVG Version: 6.00 Build 0)  -->
<svg version="1.1" id="Layer_1" xmlns="http://www.w3.org/2000/svg" xmlns:xlink="http://www.w3.org/1999/xlink" x="0px" y="0px"
	 viewBox="0 0 512 512" style="enable-background:new 0 0 512 512;" xml:space="preserve">
<circle style="fill:#273B7A;" cx="256" cy="256" r="256"/>
<g>
	<path style="fill:#121149;" d="M162.854,260.222l-14.76,14.434l80.637,80.637l-68.346,39.214l116.631,116.631
		c104.85-8.521,191.821-80.215,222.813-176.971L364.578,198.916l-35.687,20.221l-40.929-40.929l-12.553,14.924l-76.947-75.442
		l-11.497,7.764l-9.325-9.325l-10.095,17.873l88.669,85.004L162.854,260.222z"/>
	<path style="fill:#121149;" d="M299.887,99.697l207.07,207.07C510.259,290.357,512,273.382,512,256
		c0-3.043-0.072-6.066-0.178-9.083L339.768,74.862L326.87,87.747l-14.072-13.233L299.887,99.697z"/>
</g>
<path style="fill:#B54324;" d="M255.993,223.828v174.394h86.449c7.297,0,13.212-5.915,13.212-13.212V223.828H255.993z"/>
<path style="fill:#D35933;" d="M156.346,223.828V385.01c0,7.297,5.915,13.212,13.212,13.212h86.435V223.828H156.346z"/>
<path style="fill:#FFC61B;" d="M153.657,195.234c-3.934,0-7.125,3.189-7.125,7.125v67.851c0,3.934,3.189,7.125,7.125,7.125h102.338
	v-82.101L153.657,195.234L153.657,195.234z"/>
<path style="fill:#EAA22F;" d="M358.343,195.234h-102.35v82.101h102.35c3.934,0,7.125-3.189,7.125-7.125v-67.851
	C365.468,198.425,362.279,195.234,358.343,195.234z"/>
<rect x="231.09" y="198.921" style="fill:#FFEDB5;" width="49.826" height="199.301"/>
<rect x="256" y="198.921" style="fill:#FEE187;" width="24.919" height="199.301"/>
<path style="fill:#FF314F;" d="M254.143,227.266c0.888,1.31,2.824,1.31,3.713,0c7.097-10.471,32.116-23.473,32.116-40.308
	c0-11.611-7.606-16.986-16.986-16.986c-9.382,0-16.986,7.606-16.986,16.986c0-9.382-7.606-16.986-16.986-16.986
	s-16.986,5.377-16.986,16.986C222.027,203.793,247.046,216.797,254.143,227.266z"/>
<path style="fill:#A30F44;" d="M272.986,169.972c-9.382,0-16.986,7.604-16.986,16.987c0-0.041-0.005-0.081-0.007-0.122v41.413
	c0.709,0.002,1.417-0.326,1.862-0.983c7.097-10.471,32.116-23.473,32.116-40.307C289.973,175.349,282.367,169.972,272.986,169.972z"
	/>
<path style="fill:#FFAD9E;" d="M179.974,145.87c0.496,0.731,1.576,0.731,2.072,0c3.962-5.844,17.927-13.102,17.927-22.499
	c0-6.48-4.244-9.481-9.481-9.481s-9.481,4.244-9.481,9.481c0-5.237-4.244-9.481-9.481-9.481s-9.481,3.001-9.481,9.481
	C162.047,132.768,176.012,140.026,179.974,145.87z"/>
<path style="fill:#FF6262;" d="M190.492,113.89c-5.237,0-9.481,4.244-9.481,9.481c0-0.022-0.003-0.045-0.003-0.069v23.116
	c0.395,0.002,0.791-0.181,1.04-0.548c3.962-5.844,17.927-13.102,17.927-22.499C199.973,116.891,195.729,113.89,190.492,113.89z"/>
<path style="fill:#FFAD9E;" d="M316.361,115.383c0.676,0.998,2.15,0.998,2.826,0c5.403-7.97,24.445-17.867,24.445-30.68
	c0-8.837-5.789-12.929-12.929-12.929c-7.14,0-12.929,5.789-12.929,12.929c0-7.14-5.789-12.929-12.929-12.929
	c-7.14,0-12.929,4.093-12.929,12.929C291.914,97.518,310.958,107.413,316.361,115.383z"/>
<path style="fill:#FF6262;" d="M330.702,71.773c-7.14,0-12.929,5.789-12.929,12.929c0-0.031-0.005-0.062-0.005-0.093v31.522
	c0.54,0.002,1.079-0.248,1.417-0.748c5.401-7.97,24.445-17.867,24.445-30.68C343.631,75.866,337.842,71.773,330.702,71.773z"/>
<g>
</g>
<g>
</g>
<g>
</g>
<g>
</g>
<g>
</g>
<g>
</g>
<g>
</g>
<g>
</g>
<g>
</g>
<g>
</g>
<g>
</g>
<g>
</g>
<g>
</g>
<g>
</g>
<g>
</g>
</svg>
