<?xml version="1.0" encoding="iso-8859-1"?>
<!-- Generator: Adobe Illustrator 19.0.0, SVG Export Plug-In . SVG Version: 6.00 Build 0)  -->
<svg version="1.1" id="Layer_1" xmlns="http://www.w3.org/2000/svg" xmlns:xlink="http://www.w3.org/1999/xlink" x="0px" y="0px"
	 viewBox="0 0 512 512" style="enable-background:new 0 0 512 512;" xml:space="preserve">
<circle style="fill:#273B7A;" cx="256" cy="256" r="256"/>
<path style="fill:#121149;" d="M512,256c0-3.677-0.097-7.332-0.25-10.971l-93.358-93.36l-27.31,41.113l-35.297-35.297
	l-15.529,32.403l-0.634,26.786l-12.472,14.717l-19.558-17.608l-20.363,18.284l46.84,46.549l-6.918,10.414l-86.007-86.007
	l-6.278,7.564l-63.335-63.333l-14.605,143.512l-7.52,25.99l-29.01,74.269l120.522,120.522c4.992,0.29,10.019,0.453,15.084,0.453
	C397.384,512,512,397.384,512,256z"/>
<path style="fill:#AFA168;" d="M336.898,334.438L336.898,334.438c-13.305-5.191-19.884-20.184-14.693-33.489l54.505-139.726
	c5.191-13.305,20.183-19.884,33.489-14.693l0,0c13.305,5.191,19.884,20.183,14.693,33.489l-54.505,139.726
	C365.196,333.05,350.203,339.628,336.898,334.438z"/>
<path style="fill:#9B8E59;" d="M411.805,147.254l-77.86,185.787c0.948,0.514,1.922,0.995,2.953,1.396l0,0
	c13.305,5.191,28.298-1.388,33.489-14.693l54.505-139.726C429.866,167.267,424.012,152.99,411.805,147.254z"/>
<g>
	<path style="fill:#8E8247;" d="M407.471,196.105c-0.415,0-0.84-0.078-1.252-0.238l-26.5-10.338
		c-1.774-0.691-2.651-2.693-1.96-4.465c0.691-1.77,2.689-2.648,4.465-1.96l26.5,10.338c1.774,0.691,2.651,2.693,1.96,4.465
		C410.153,195.269,408.852,196.105,407.471,196.105z"/>
	<path style="fill:#8E8247;" d="M398.7,218.588c-0.415,0-0.84-0.078-1.252-0.238l-26.5-10.337c-1.774-0.691-2.651-2.691-1.96-4.465
		c0.691-1.772,2.691-2.651,4.465-1.96l26.5,10.337c1.774,0.691,2.651,2.691,1.96,4.465
		C401.382,217.752,400.081,218.588,398.7,218.588z"/>
	<path style="fill:#8E8247;" d="M381.157,263.558c-0.415,0-0.84-0.078-1.252-0.238l-26.5-10.337
		c-1.774-0.691-2.651-2.691-1.96-4.465c0.691-1.772,2.691-2.651,4.465-1.96l26.5,10.337c1.774,0.691,2.651,2.691,1.96,4.465
		C383.84,262.721,382.538,263.558,381.157,263.558z"/>
	<path style="fill:#8E8247;" d="M389.928,241.073c-0.415,0-0.84-0.078-1.252-0.238l-26.5-10.337
		c-1.774-0.691-2.651-2.691-1.96-4.465c0.691-1.772,2.691-2.65,4.465-1.96l26.5,10.337c1.774,0.691,2.651,2.691,1.96,4.465
		C392.611,240.237,391.309,241.073,389.928,241.073z"/>
</g>
<g>
	<path style="fill:#7F733D;" d="M408.724,189.443l-12.55-4.896l-2.665,6.361l12.71,4.958c0.41,0.16,0.834,0.238,1.252,0.238
		c1.381,0,2.682-0.834,3.213-2.196C411.377,192.134,410.5,190.135,408.724,189.443z"/>
	<path style="fill:#7F733D;" d="M399.955,211.927l-13.109-5.113l-2.667,6.361l13.271,5.177c0.41,0.16,0.834,0.238,1.252,0.238
		c1.381,0,2.682-0.834,3.213-2.196C402.606,214.616,401.729,212.618,399.955,211.927z"/>
	<path style="fill:#7F733D;" d="M382.412,256.896l-14.231-5.551l-2.667,6.361l14.391,5.613c0.41,0.16,0.834,0.238,1.252,0.238
		c1.381,0,2.682-0.834,3.213-2.196C385.064,259.586,384.186,257.588,382.412,256.896z"/>
	<path style="fill:#7F733D;" d="M391.184,234.412l-13.669-5.332l-2.667,6.361l13.831,5.394c0.41,0.16,0.834,0.238,1.252,0.238
		c1.381,0,2.682-0.834,3.213-2.196C393.835,237.101,392.957,235.103,391.184,234.412z"/>
</g>
<path style="fill:#BCAF7D;" d="M334.227,325.441L334.227,325.441c-12.303-0.529-21.849-10.935-21.318-23.238l5.566-129.214
	c0.529-12.304,10.935-21.849,23.238-21.318l0,0c12.303,0.529,21.849,10.935,21.318,23.238l-5.566,129.214
	C356.936,316.426,346.531,325.97,334.227,325.441z"/>
<path style="fill:#AFA071;" d="M341.714,151.671L341.714,151.671c-0.078-0.003-0.152,0.003-0.229,0.002l-7.502,173.746
	c0.083,0.005,0.162,0.019,0.243,0.022l0,0c12.304,0.529,22.707-9.014,23.238-21.318l5.566-129.214
	C363.563,162.606,354.018,152.2,341.714,151.671z"/>
<g>
	<path style="fill:#8E8247;" d="M352.339,193.52c-0.05,0-0.102-0.002-0.152-0.003l-24.507-1.057
		c-1.903-0.083-3.379-1.689-3.296-3.593c0.083-1.903,1.743-3.355,3.593-3.296l24.507,1.057c1.903,0.083,3.379,1.689,3.296,3.593
		C355.702,192.072,354.175,193.52,352.339,193.52z"/>
	<path style="fill:#8E8247;" d="M351.442,214.313c-0.05,0-0.102-0.002-0.152-0.003l-24.505-1.057
		c-1.903-0.083-3.379-1.689-3.296-3.593c0.083-1.903,1.695-3.344,3.593-3.296l24.505,1.057c1.903,0.083,3.379,1.689,3.296,3.593
		C354.804,212.866,353.277,214.313,351.442,214.313z"/>
	<path style="fill:#8E8247;" d="M349.651,255.898c-0.05,0-0.102-0.002-0.152-0.003l-24.505-1.055
		c-1.903-0.083-3.379-1.689-3.296-3.593c0.081-1.903,1.726-3.325,3.593-3.296l24.505,1.055c1.903,0.083,3.379,1.689,3.296,3.593
		C353.013,254.452,351.485,255.898,349.651,255.898z"/>
	<path style="fill:#8E8247;" d="M350.546,235.106c-0.05,0-0.102-0.002-0.152-0.003l-24.505-1.055
		c-1.903-0.083-3.379-1.689-3.296-3.593c0.081-1.903,1.71-3.336,3.593-3.296l24.505,1.055c1.903,0.083,3.379,1.689,3.296,3.593
		C353.909,233.658,352.382,235.106,350.546,235.106z"/>
</g>
<g>
	<path style="fill:#7F733D;" d="M352.484,186.628l-12.485-0.538l-0.297,6.889l12.486,0.538c0.05,0.002,0.102,0.003,0.152,0.003
		c1.834,0,3.362-1.448,3.441-3.3C355.862,188.318,354.387,186.711,352.484,186.628z"/>
	<path style="fill:#7F733D;" d="M351.587,207.42l-12.485-0.538l-0.297,6.889l12.486,0.54c0.05,0.002,0.102,0.003,0.152,0.003
		c1.834,0,3.362-1.448,3.441-3.3C354.966,209.111,353.489,207.503,351.587,207.42z"/>
</g>
<path style="fill:#8E8247;" d="M325.291,247.951c-1.867-0.029-3.512,1.395-3.593,3.296c-0.083,1.903,1.395,3.51,3.296,3.593
	l12.014,0.517l0.297-6.889L325.291,247.951z"/>
<g>
	<path style="fill:#7F733D;" d="M349.796,249.006l-12.49-0.538l-0.297,6.889l12.49,0.538c0.05,0.002,0.102,0.003,0.152,0.003
		c1.834,0,3.362-1.448,3.441-3.3C353.175,250.697,351.697,249.089,349.796,249.006z"/>
	<path style="fill:#7F733D;" d="M350.691,228.214l-12.488-0.538l-0.297,6.889l12.488,0.538c0.05,0.002,0.102,0.003,0.152,0.003
		c1.834,0,3.362-1.448,3.441-3.3C354.07,229.904,352.594,228.297,350.691,228.214z"/>
</g>
<path style="fill:#FFFFFF;" d="M173.392,165.231h-31.115v-13.679c0-3.265,2.646-5.911,5.911-5.911h19.292
	c3.265,0,5.911,2.646,5.911,5.911V165.231z"/>
<path style="fill:#D0D1D3;" d="M173.392,151.552c0-3.265-2.646-5.911-5.911-5.911h-9.744v19.59h15.655V151.552z"/>
<path style="fill:#FEE187;" d="M116.558,353.773V229.631c0-20.333,7.19-39.836,19.989-54.213l7.528-8.459h27.517l7.528,8.459
	c12.798,14.379,19.989,33.88,19.989,54.213v124.142c0,8.838-6.378,16.005-14.245,16.005h-54.062
	C122.937,369.778,116.558,362.613,116.558,353.773z"/>
<path style="fill:#FFC61B;" d="M179.122,175.418l-7.528-8.459h-13.857v202.819h27.127c7.868,0,14.245-7.165,14.245-16.005V229.631
	C199.111,209.298,191.921,189.797,179.122,175.418z"/>
<path style="fill:#D0D1D3;" d="M174.111,167.536h-32.554c-0.557,0-1.008-0.452-1.008-1.008v-1.439c0-0.557,0.452-1.008,1.008-1.008
	h32.554c0.557,0,1.008,0.452,1.008,1.008v1.439C175.12,167.084,174.668,167.536,174.111,167.536z"/>
<path style="fill:#A6A8AA;" d="M174.111,164.078h-16.374v3.456h16.374c0.557,0,1.008-0.452,1.008-1.008v-1.439
	C175.12,164.53,174.668,164.078,174.111,164.078z"/>
<path style="fill:#FFFFFF;" d="M241.895,215.795h-23.423v-10.297c0-2.458,1.993-4.449,4.449-4.449h14.522
	c2.458,0,4.449,1.993,4.449,4.449v10.297H241.895z"/>
<path style="fill:#D0D1D3;" d="M241.895,205.496c0-2.458-1.993-4.449-4.449-4.449h-7.016v14.748h11.466V205.496z"/>
<path style="fill:#71E2EF;" d="M199.111,357.729v-93.455c0-15.308,5.413-29.987,15.048-40.812l5.668-6.368h20.714l5.668,6.368
	c9.635,10.824,15.048,25.505,15.048,40.812v93.455c0,6.654-4.801,12.048-10.724,12.048h-40.7
	C203.912,369.778,199.111,364.384,199.111,357.729z"/>
<path style="fill:#38C6D9;" d="M246.208,223.463l-5.668-6.368h-10.112v152.683h20.102c5.923,0,10.724-5.394,10.724-12.048v-93.455
	C261.256,248.968,255.843,234.287,246.208,223.463z"/>
<path style="fill:#D0D1D3;" d="M242.436,217.529h-24.507c-0.419,0-0.759-0.34-0.759-0.759v-1.084c0-0.419,0.34-0.759,0.759-0.759
	h24.507c0.419,0,0.759,0.34,0.759,0.759v1.084C243.197,217.19,242.855,217.529,242.436,217.529z"/>
<path style="fill:#A6A8AA;" d="M242.436,214.928h-12.009v2.603h12.009c0.419,0,0.759-0.34,0.759-0.759v-1.084
	C243.197,215.268,242.855,214.928,242.436,214.928z"/>
<rect x="201.559" y="283.893" style="fill:#02B2B2;" width="57.251" height="42.942"/>
<path style="fill:#FFFFFF;" d="M222.589,309.162c0-4.194,7.594-15.188,7.594-15.188s7.594,10.993,7.594,15.188
	c0,4.194-3.4,7.594-7.594,7.594S222.589,313.356,222.589,309.162z"/>
<path style="fill:#57B240;" d="M292.778,222.005c-4.758-4.844-6.697-15.238-6.846-16.065c-0.005-0.028,0.016-0.048,0.043-0.041
	c0.824,0.162,11.178,2.286,15.934,7.128c4.956,5.046,4.482,8.654,1.96,11.133C301.347,226.64,297.734,227.05,292.778,222.005z"/>
<path style="fill:#477F3C;" d="M300.651,232.944l3.977-18.304c0.179-0.824,0.902-1.472,1.745-1.438
	c1.091,0.047,1.829,1.05,1.608,2.067l-3.998,18.399L300.651,232.944z"/>
<path style="fill:#C92F00;" d="M291.399,283.553c0,0,6.185,3.558,11.071,4.62c19.154,4.161,48.166-37.673,31.828-55.139
	c-13.265-14.184-31.613-1.422-31.613-1.422s-11.39-19.208-29.353-11.824c-22.761,9.356-10.723,59.726,6.075,63.376
	C284.294,284.224,291.399,283.553,291.399,283.553z"/>
<path style="fill:#930000;" d="M291.399,283.553c0,0,6.185,3.558,11.071,4.62c19.154,4.161,48.166-37.673,31.828-55.139
	c-13.265-14.184-31.613-1.422-31.613-1.422L291.399,283.553z"/>
<path style="fill:#EAA22F;" d="M374.662,398.222H137.338c-13.012,0-23.561-10.549-23.561-23.561V256h284.444v118.662
	C398.222,387.674,387.674,398.222,374.662,398.222z"/>
<path style="fill:#E09112;" d="M256.072,256v142.222h118.589c13.012,0,23.561-10.549,23.561-23.561V256H256.072z"/>
<path style="fill:#FFEDB5;" d="M253.833,367.188c1.038,1.531,3.296,1.531,4.332,0c8.283-12.221,37.483-27.395,37.483-47.044
	c0-13.55-8.876-19.825-19.825-19.825s-19.825,8.876-19.825,19.825c0-10.949-8.876-19.825-19.825-19.825s-19.825,6.275-19.825,19.825
	C216.35,339.794,245.55,354.969,253.833,367.188z"/>
<path style="fill:#FEE187;" d="M275.825,300.322c-10.466,0-19.016,8.114-19.753,18.392v49.616c0.8-0.022,1.591-0.396,2.095-1.139
	c8.283-12.221,37.483-27.395,37.483-47.044C295.65,306.595,286.773,300.322,275.825,300.322z"/>
<g>
</g>
<g>
</g>
<g>
</g>
<g>
</g>
<g>
</g>
<g>
</g>
<g>
</g>
<g>
</g>
<g>
</g>
<g>
</g>
<g>
</g>
<g>
</g>
<g>
</g>
<g>
</g>
<g>
</g>
</svg>
