<?xml version="1.0" encoding="iso-8859-1"?>
<!-- Generator: Adobe Illustrator 19.0.0, SVG Export Plug-In . SVG Version: 6.00 Build 0)  -->
<svg version="1.1" id="Layer_1" xmlns="http://www.w3.org/2000/svg" xmlns:xlink="http://www.w3.org/1999/xlink" x="0px" y="0px"
	 viewBox="0 0 512 512" style="enable-background:new 0 0 512 512;" xml:space="preserve">
<circle style="fill:#273B7A;" cx="256" cy="256" r="256"/>
<g>
	<path style="fill:#121149;" d="M420.616,156.141l91.224,91.224c-0.577-17.408-2.889-34.376-6.775-50.736l-59.478-59.842
		l-3.139,2.246l-12.026-11.464L420.616,156.141z"/>
	<path style="fill:#121149;" d="M472.136,393.233L281.221,202.271l-33.359,34.125L82.354,327.039l64.333,61.516l-16.058,11.409
		l112.123,111.699c4.387,0.224,8.804,0.338,13.247,0.338C346.889,512,426.71,464.629,472.136,393.233z"/>
	<path style="fill:#121149;" d="M335.082,250.099l139.569,139.105c18.934-31.013,31.442-66.372,35.707-104.229L347.722,122.339
		l-19.594,9.695l-4.97-5.122l-9.463,25.409l55.518,55.518l-2.357,2.791l-17.534-17.991L335.082,250.099z"/>
</g>
<path style="fill:#B54324;" d="M153.34,403.278h-14.021c-6.094,0-11.378-4.211-12.738-10.152l-16.003-69.899h40.832l14.669,64.065
	C167.952,395.478,161.735,403.278,153.34,403.278z"/>
<path style="fill:#FFAD9E;" d="M334.446,248.999c0.452,1.674,2.455,2.365,3.843,1.326c11.085-8.301,41.622-12.821,47.635-30.244
	c4.148-12.016-1.803-20.296-11.512-23.647c-9.709-3.351-20.296,1.803-23.647,11.512c3.351-9.709-1.803-20.296-11.512-23.647
	c-9.709-3.351-19.501-0.503-23.647,11.512C309.591,213.235,330.84,235.629,334.446,248.999z"/>
<path style="fill:#FF6262;" d="M374.41,196.434c-9.709-3.351-20.296,1.803-23.647,11.512c0.016-0.043,0.022-0.086,0.038-0.129
	l-14.791,42.86c0.733,0.255,1.583,0.169,2.279-0.352c11.085-8.301,41.622-12.821,47.635-30.244
	C390.07,208.065,384.119,199.785,374.41,196.434z"/>
<path style="fill:#FFAD9E;" d="M329.806,163.552c0.795,0.859,2.207,0.645,2.712-0.412c4.024-8.432,20.854-20.699,18.989-32.992
	c-1.286-8.478-7.435-11.562-14.286-10.523s-11.562,7.435-10.523,14.286c-1.04-6.851-7.435-11.562-14.286-10.523
	c-6.851,1.04-11.809,5.808-10.523,14.286C303.752,149.968,323.463,156.691,329.806,163.552z"/>
<path style="fill:#FF6262;" d="M337.22,119.625c-6.851,1.04-11.562,7.435-10.523,14.286c-0.005-0.031-0.014-0.059-0.019-0.09
	l4.587,30.242c0.517-0.078,0.998-0.395,1.252-0.924c4.024-8.432,20.854-20.699,18.989-32.992
	C350.22,121.67,344.071,118.586,337.22,119.625z"/>
<path style="fill:#FFAD9E;" d="M420.068,155.22c0.04,0.809,0.886,1.322,1.622,0.986c5.882-2.693,20.27-1.736,24.738-9.095
	c3.082-5.075,1.184-9.444-2.917-11.935c-4.101-2.489-9.444-1.184-11.935,2.917c2.491-4.101,1.184-9.444-2.917-11.935
	c-4.101-2.489-8.852-2.158-11.935,2.917C412.258,136.435,419.745,148.761,420.068,155.22z"/>
<path style="fill:#FF6262;" d="M443.513,135.177c-4.101-2.489-9.444-1.184-11.935,2.917c0.01-0.019,0.019-0.038,0.029-0.055
	l-10.993,18.103c0.309,0.188,0.705,0.234,1.076,0.066c5.882-2.693,20.27-1.736,24.738-9.095
	C449.51,142.036,447.614,137.668,443.513,135.177z"/>
<path style="fill:#FFC61B;" d="M259.889,367.673L80.277,316.356v-53.367l179.612-51.317c3.594-1.027,7.171,1.672,7.171,5.41v145.184
	C267.061,366.002,263.482,368.7,259.889,367.673z"/>
<path style="fill:#EAA22F;" d="M80.277,287.604v28.751l179.612,51.317c3.594,1.027,7.171-1.672,7.171-5.41v-74.659H80.277z"/>
<polygon style="fill:#E09112;" points="187.009,346.852 240.376,362.098 240.376,217.247 187.009,232.495 "/>
<polygon style="fill:#FF5419;" points="187.009,287.604 187.009,346.852 240.376,362.098 240.376,287.604 "/>
<g>
	<path style="fill:#D35933;" d="M96.215,328.888H86.98c-3.701,0-6.703-3.001-6.703-6.703v-66.644c0-3.701,3.001-6.703,6.703-6.703
		h9.235c3.701,0,6.703,3.001,6.703,6.703v66.644C102.917,325.887,99.916,328.888,96.215,328.888z"/>
	<path style="fill:#D35933;" d="M273.548,378.616h-4.889c-6.018,0-10.897-4.879-10.897-10.897V210.008
		c0-6.018,4.879-10.897,10.897-10.897h4.889c6.018,0,10.897,4.879,10.897,10.897v157.712
		C284.444,373.738,279.566,378.616,273.548,378.616z"/>
</g>
<g>
	<path style="fill:#B54324;" d="M80.277,287.604v34.582c0,3.701,3.001,6.703,6.703,6.703h9.235c3.701,0,6.703-3.001,6.703-6.703
		v-34.582H80.277z"/>
	<path style="fill:#B54324;" d="M257.762,287.604v80.115c0,6.018,4.879,10.897,10.897,10.897h4.889
		c6.018,0,10.897-4.879,10.897-10.897v-80.115L257.762,287.604L257.762,287.604z"/>
</g>
<g>
</g>
<g>
</g>
<g>
</g>
<g>
</g>
<g>
</g>
<g>
</g>
<g>
</g>
<g>
</g>
<g>
</g>
<g>
</g>
<g>
</g>
<g>
</g>
<g>
</g>
<g>
</g>
<g>
</g>
</svg>
