<?xml version="1.0" encoding="iso-8859-1"?>
<!-- Generator: Adobe Illustrator 19.0.0, SVG Export Plug-In . SVG Version: 6.00 Build 0)  -->
<svg version="1.1" id="Layer_1" xmlns="http://www.w3.org/2000/svg" xmlns:xlink="http://www.w3.org/1999/xlink" x="0px" y="0px"
	 viewBox="0 0 512.002 512.002" style="enable-background:new 0 0 512.002 512.002;" xml:space="preserve">
<circle style="fill:#EAA22F;" cx="256.001" cy="256" r="256"/>
<g>
	<polygon style="fill:#E09112;" points="166.535,177.993 194.245,205.702 184.459,161.473 	"/>
	<path style="fill:#E09112;" d="M506.969,306.709L346.895,146.215l-103.109,76.886l-10.664,7.825l-8.701,8.437l-40.531,39.302
		l52.183,52.183h-15.126l-86.175,84.164l95.728,95.728c8.389,0.829,16.893,1.262,25.5,1.262
		C380.024,512,483.439,423.802,506.969,306.709z"/>
	<path style="fill:#E09112;" d="M243.549,222.861C243.423,222.737,243.335,222.648,243.549,222.861L243.549,222.861z"/>
</g>
<path style="fill:#FFEDB5;" d="M373.282,317.159c-2.708-3.763-7.63-5.244-11.969-3.615c-0.062,0.024-0.124,0.047-0.188,0.067
	l-73.463,24.457c0.016,0.59,0.003,1.184-0.034,1.783c-0.614,9.382-7.868,16.917-17.191,17.863l-44.273,4.598
	c-2.801,0.293-5.304-1.743-5.596-4.542c-0.293-2.801,1.743-5.37,4.542-5.596l44.273-4.598c4.37-0.476,7.783-3.984,8.071-8.389
	c0.157-2.405-0.633-4.727-2.222-6.537c-1.589-1.812-3.791-2.896-6.196-3.053l-58.782-3.832c-6.603-0.428-13.155,1.029-18.953,4.22
	l-77.524,42.691l20.995,42.334l19.473-16.989c8.271-7.215,19.227-10.323,30.058-8.523l65.093,10.817
	c11.928,1.586,23.886-1.389,33.68-8.376l88.626-61.037C375.664,327.442,376.367,321.448,373.282,317.159z"/>
<g>
	<path style="fill:#FEE187;" d="M269.384,347.577c4.37-0.476,7.783-3.984,8.071-8.389c0.157-2.405-0.633-4.727-2.222-6.537
		c-1.589-1.812-3.791-2.896-6.196-3.053l-12.748-0.831v20.171L269.384,347.577z"/>
	<path style="fill:#FEE187;" d="M373.28,317.159c-2.707-3.763-7.63-5.244-11.969-3.615c-0.062,0.024-0.124,0.045-0.186,0.067
		l-73.463,24.457c0.016,0.59,0.003,1.184-0.034,1.783c-0.614,9.382-7.868,16.917-17.191,17.863l-14.148,1.47v41.541
		c9.569-0.124,18.884-3.146,26.788-8.785l88.626-61.037C375.664,327.442,376.367,321.448,373.28,317.159z"/>
</g>
<path style="fill:#386895;" d="M315.012,284.444H196.99c-9.825,0-17.789-7.964-17.789-17.789V146.204l76.8-30.72l76.8,30.72v120.451
	C332.799,276.48,324.836,284.444,315.012,284.444z"/>
<g>
	<path style="fill:#273B7A;" d="M256.001,115.484v168.96h59.011c9.825,0,17.789-7.964,17.789-17.789V146.204L256.001,115.484z"/>
	<path style="fill:#273B7A;" d="M252.9,110.208l-84.744,33.899c-3.169,1.267-5.248,4.337-5.248,7.751v19.256
		c0,5.904,5.965,9.943,11.447,7.751l78.545-31.418c1.989-0.796,4.21-0.796,6.199,0l78.545,31.418
		c5.482,2.193,11.447-1.845,11.447-7.751v-19.256c0-3.413-2.077-6.482-5.248-7.751l-84.744-33.897
		C257.109,109.413,254.891,109.413,252.9,110.208z"/>
</g>
<path style="fill:#121149;" d="M343.844,144.106L259.1,110.209c-0.995-0.398-2.048-0.596-3.1-0.596v37.236
	c1.052,0,2.105,0.198,3.1,0.596l78.545,31.418c5.482,2.193,11.447-1.845,11.447-7.751v-19.256
	C349.09,148.442,347.013,145.374,343.844,144.106z"/>
<rect x="227.556" y="227.556" style="fill:#D0D1D3;" width="56.889" height="56.889"/>
<rect x="256.001" y="227.556" style="fill:#A6A8AA;" width="28.444" height="56.889"/>
<g>
</g>
<g>
</g>
<g>
</g>
<g>
</g>
<g>
</g>
<g>
</g>
<g>
</g>
<g>
</g>
<g>
</g>
<g>
</g>
<g>
</g>
<g>
</g>
<g>
</g>
<g>
</g>
<g>
</g>
</svg>
