<?xml version="1.0" encoding="iso-8859-1"?>
<!-- Generator: Adobe Illustrator 19.0.0, SVG Export Plug-In . SVG Version: 6.00 Build 0)  -->
<svg version="1.1" id="Layer_1" xmlns="http://www.w3.org/2000/svg" xmlns:xlink="http://www.w3.org/1999/xlink" x="0px" y="0px"
	 viewBox="0 0 512 512" style="enable-background:new 0 0 512 512;" xml:space="preserve">
<circle style="fill:#FFEDB5;" cx="256" cy="256" r="256"/>
<path style="fill:#FEE187;" d="M512,256c0-3.082-0.074-6.146-0.183-9.202l-94.722-94.722L256,112.485l-160.544,95.33l47.683,47.683
	L129.51,389.677l122.27,122.27c1.405,0.022,2.81,0.053,4.22,0.053C397.384,512,512,397.384,512,256z"/>
<path style="fill:#386895;" d="M360.882,398.222H151.116c-17.461,0-31.616-14.155-31.616-31.616V152.523L256,97.923l136.501,54.6
	v214.083C392.501,384.067,378.344,398.222,360.882,398.222z"/>
<g>
	<path style="fill:#273B7A;" d="M256,97.923v300.299h104.882c17.461,0,31.616-14.155,31.616-31.616V152.523L256,97.923z"/>
	<path style="fill:#273B7A;" d="M250.49,88.545L99.871,148.792c-5.632,2.253-9.326,7.708-9.326,13.774v34.225
		c0,10.495,10.6,17.672,20.346,13.774l139.6-55.841c3.537-1.415,7.482-1.415,11.019,0l139.6,55.841
		c9.745,3.898,20.346-3.279,20.346-13.774v-34.225c0-6.066-3.693-11.521-9.326-13.774L261.51,88.545
		C257.972,87.13,254.028,87.13,250.49,88.545z"/>
</g>
<path style="fill:#121149;" d="M412.129,148.792L261.51,88.545c-1.769-0.707-3.639-1.062-5.51-1.062v66.182
	c1.87,0,3.741,0.353,5.51,1.062l139.6,55.841c9.745,3.898,20.346-3.279,20.346-13.774v-34.228
	C421.454,156.5,417.761,151.045,412.129,148.792z"/>
<path style="fill:#FEE187;" d="M198.137,210.42h115.727l23.145,46.292l-40.679,81.358c-3.439,6.88-10.471,11.224-18.163,11.224
	h-44.337c-7.692,0-14.722-4.346-18.161-11.224l-40.679-81.358L198.137,210.42z"/>
<g>
	<path style="fill:#FFC61B;" d="M313.865,210.42h-58.008v138.874h22.313c7.692,0,14.722-4.346,18.161-11.224l40.679-81.358
		L313.865,210.42z"/>
	<path style="fill:#FFC61B;" d="M196.508,198.635l-45.334,30.222c-3.899,2.6-4.953,7.868-2.353,11.766l30.222,45.334
		c4.193,6.289,13.896,4.37,15.379-3.043l15.112-75.557C211.016,199.947,202.797,194.443,196.508,198.635z"/>
</g>
<g>
	<path style="fill:#E09112;" d="M315.494,198.635l45.334,30.222c3.899,2.6,4.953,7.868,2.353,11.766l-30.222,45.334
		c-4.193,6.289-13.896,4.37-15.379-3.043l-15.112-75.557C300.985,199.947,309.205,194.443,315.494,198.635z"/>
	<rect x="250.828" y="279.859" style="fill:#E09112;" width="10.343" height="69.439"/>
</g>
<rect x="255.862" y="279.859" style="fill:#FF5419;" width="5.315" height="69.439"/>
<path style="fill:#D35933;" d="M270.741,281.745l-10.619,13.107c-2.122,2.62-6.118,2.62-8.24,0l-10.619-13.107
	c-2.81-3.467-0.341-8.642,4.12-8.642h21.24C271.082,273.103,273.551,278.276,270.741,281.745z"/>
<path style="fill:#B54324;" d="M266.621,273.101h-10.762V296.8c1.577,0.043,3.169-0.598,4.263-1.95l10.619-13.107
	C273.551,278.276,271.082,273.101,266.621,273.101z"/>
<circle style="fill:#59595B;" cx="221.281" cy="253.207" r="9.819"/>
<circle style="fill:#272525;" cx="288.961" cy="253.207" r="9.819"/>
<g>
</g>
<g>
</g>
<g>
</g>
<g>
</g>
<g>
</g>
<g>
</g>
<g>
</g>
<g>
</g>
<g>
</g>
<g>
</g>
<g>
</g>
<g>
</g>
<g>
</g>
<g>
</g>
<g>
</g>
</svg>
