<?xml version="1.0" encoding="iso-8859-1"?>
<!-- Generator: Adobe Illustrator 19.0.0, SVG Export Plug-In . SVG Version: 6.00 Build 0)  -->
<svg version="1.1" id="Layer_1" xmlns="http://www.w3.org/2000/svg" xmlns:xlink="http://www.w3.org/1999/xlink" x="0px" y="0px"
	 viewBox="0 0 512 512" style="enable-background:new 0 0 512 512;" xml:space="preserve">
<circle style="fill:#FFC61B;" cx="256" cy="256" r="256"/>
<path style="fill:#EAA22F;" d="M510.707,281.859L369.778,140.929L256,277.692l-9.768,5.172l-75.212,48.211l167.374,167.374
	C431.526,466.808,500.56,383.016,510.707,281.859z"/>
<path style="fill:#8BC180;" d="M256,396.929l70.796-53.096c27.058-20.294,42.982-52.143,42.982-85.966V140.929
	C314.901,142.653,256,112.485,256,112.485s-58.901,30.168-113.778,28.444v116.938c0,33.823,15.924,65.672,42.982,85.966L256,396.929
	z"/>
<path style="fill:#6CAF5F;" d="M256,396.929l70.796-53.096c27.058-20.294,42.982-52.143,42.982-85.966V140.929
	C314.901,142.653,256,112.485,256,112.485V396.929z"/>
<path style="fill:#477F3C;" d="M256,377.535l61.142-45.856c23.369-17.527,37.121-45.032,37.121-74.243V156.444
	C306.869,157.934,256,131.879,256,131.879s-50.869,26.055-98.263,24.566v100.992c0,29.212,13.753,56.716,37.121,74.243L256,377.535z
	"/>
<path style="fill:#2E5E24;" d="M256,377.535l61.142-45.856c23.369-17.527,37.121-45.032,37.121-74.243V156.444
	C306.869,157.934,256,131.879,256,131.879V377.535z"/>
<path style="fill:#FFAD9E;" d="M252.938,292.305c1.465,2.162,4.656,2.162,6.123,0c11.704-17.267,52.965-38.71,52.965-66.474
	c0-19.147-12.541-28.013-28.013-28.013c-15.472,0-28.013,12.541-28.013,28.013c0-15.472-12.541-28.013-28.013-28.013
	s-28.013,8.866-28.013,28.013C199.973,253.595,241.235,275.039,252.938,292.305z"/>
<path style="fill:#FF6262;" d="M284.013,197.818c-15.472,0-28.013,12.541-28.013,28.013c0-0.069-0.01-0.134-0.01-0.203v68.298
	c1.167,0.003,2.336-0.536,3.072-1.62c11.704-17.267,52.965-38.71,52.965-66.474C312.027,206.684,299.486,197.818,284.013,197.818z"
	/>
<g>
</g>
<g>
</g>
<g>
</g>
<g>
</g>
<g>
</g>
<g>
</g>
<g>
</g>
<g>
</g>
<g>
</g>
<g>
</g>
<g>
</g>
<g>
</g>
<g>
</g>
<g>
</g>
<g>
</g>
</svg>
