<?xml version="1.0" encoding="iso-8859-1"?>
<!-- Generator: Adobe Illustrator 19.0.0, SVG Export Plug-In . SVG Version: 6.00 Build 0)  -->
<svg version="1.1" id="Layer_1" xmlns="http://www.w3.org/2000/svg" xmlns:xlink="http://www.w3.org/1999/xlink" x="0px" y="0px"
	 viewBox="0 0 512 512" style="enable-background:new 0 0 512 512;" xml:space="preserve">
<circle style="fill:#B54324;" cx="256" cy="256" r="256"/>
<path style="fill:#930000;" d="M275.987,511.228c127.354-9.835,228.58-112.857,235.611-240.976l-99.585-99.585l-143.227,12.929
	l-99.987-3.448l-68.813,68.525l96.044,96.044l-44.039,42.515L275.987,511.228z"/>
<polygon style="fill:#FFFFFF;" points="360.008,153.212 151.992,153.212 99.987,170.667 99.987,248.673 151.992,231.219 
	151.992,387.232 360.008,387.232 360.008,231.219 412.013,248.673 412.013,170.667 "/>
<polygon style="fill:#D0D1D3;" points="360.008,153.212 256,153.212 256,387.232 360.008,387.232 360.008,231.219 412.013,248.673 
	412.013,170.667 "/>
<path style="fill:#A6A8AA;" d="M308.005,153.212c0,28.722-23.283,52.005-52.005,52.005s-52.005-23.283-52.005-52.005H308.005z"/>
<g>
	<path style="fill:#808183;" d="M308.005,153.212H256v52.005C284.722,205.217,308.005,181.932,308.005,153.212z"/>
	<path style="fill:#808183;" d="M296.186,153.212c0,22.194-17.992,40.186-40.186,40.186s-40.186-17.992-40.186-40.186H296.186z"/>
</g>
<path style="fill:#59595B;" d="M296.186,153.212H256v40.186C278.194,193.398,296.186,175.406,296.186,153.212z"/>
<polygon style="fill:#D0D1D3;" points="99.987,248.673 151.992,231.219 151.992,153.212 99.987,170.667 "/>
<polygon style="fill:#A6A8AA;" points="360.008,231.219 412.013,248.673 412.013,170.667 360.008,153.212 "/>
<path style="fill:#FF314F;" d="M253.833,311.741c1.038,1.531,3.296,1.531,4.332,0c8.283-12.221,37.483-27.395,37.483-47.044
	c0-13.55-8.876-19.825-19.825-19.825s-19.825,8.876-19.825,19.825c0-10.949-8.876-19.825-19.825-19.825s-19.825,6.275-19.825,19.825
	C216.35,284.346,245.551,299.522,253.833,311.741z"/>
<path style="fill:#A30F44;" d="M275.825,244.874c-10.949,0-19.825,8.876-19.825,19.825c0-0.048-0.007-0.095-0.007-0.143v48.333
	c0.826,0.002,1.653-0.379,2.174-1.146c8.283-12.221,37.483-27.395,37.483-47.044C295.65,251.147,286.773,244.874,275.825,244.874z"
	/>
<g>
</g>
<g>
</g>
<g>
</g>
<g>
</g>
<g>
</g>
<g>
</g>
<g>
</g>
<g>
</g>
<g>
</g>
<g>
</g>
<g>
</g>
<g>
</g>
<g>
</g>
<g>
</g>
<g>
</g>
</svg>
