<?xml version="1.0" encoding="iso-8859-1"?>
<!-- Generator: Adobe Illustrator 19.0.0, SVG Export Plug-In . SVG Version: 6.00 Build 0)  -->
<svg version="1.1" id="Layer_1" xmlns="http://www.w3.org/2000/svg" xmlns:xlink="http://www.w3.org/1999/xlink" x="0px" y="0px"
	 viewBox="0 0 512 512" style="enable-background:new 0 0 512 512;" xml:space="preserve">
<circle style="fill:#FFC61B;" cx="256" cy="256" r="256"/>
<path style="fill:#EAA22F;" d="M508.987,295.365L334.57,120.648l-81.73,149.575l-75.436,121.099L295.112,509.03
	C405.094,492.168,492.018,405.314,508.987,295.365z"/>
<path style="fill:#273B7A;" d="M318.061,398.222H193.939c-12.853,0-23.273-10.419-23.273-23.273V137.051
	c0-12.853,10.419-23.273,23.273-23.273h124.121c12.853,0,23.273,10.419,23.273,23.273v237.899
	C341.333,387.803,330.914,398.222,318.061,398.222z"/>
<path style="fill:#121149;" d="M318.061,113.778h-62.095v284.444h62.095c12.853,0,23.273-10.419,23.273-23.273V137.051
	C341.333,124.197,330.914,113.778,318.061,113.778z"/>
<rect x="170.667" y="142.222" style="fill:#386895;" width="170.667" height="199.111"/>
<rect x="255.966" y="142.222" style="fill:#273B7A;" width="85.368" height="199.111"/>
<path style="fill:#FF6262;" d="M253.692,261.697c1.105,1.629,3.512,1.629,4.615,0c8.823-13.017,39.927-29.181,39.927-50.11
	c0-14.434-9.456-21.118-21.118-21.118c-11.662,0-21.118,9.456-21.118,21.118c0-11.662-9.456-21.118-21.118-21.118
	c-11.662,0-21.116,6.682-21.116,21.116C213.764,232.515,244.869,248.68,253.692,261.697z"/>
<path style="fill:#FF314F;" d="M277.118,190.467c-11.664,0-21.118,9.456-21.118,21.118c0-0.236-0.028-0.465-0.036-0.7v52.029
	c0.89,0.01,1.783-0.393,2.343-1.219c8.823-13.017,39.927-29.181,39.927-50.11C298.236,197.151,288.782,190.467,277.118,190.467z"/>
<path style="fill:#8BC180;" d="M227.987,312.889h56.027c7.854,0,14.222-6.368,14.222-14.222l0,0c0-7.854-6.368-14.222-14.222-14.222
	h-56.027c-7.854,0-14.222,6.368-14.222,14.222l0,0C213.764,306.521,220.132,312.889,227.987,312.889z"/>
<path style="fill:#6CAF5F;" d="M284.013,284.444h-28.05v28.444h28.05c7.854,0,14.222-6.368,14.222-14.222
	S291.868,284.444,284.013,284.444z"/>
<g>
</g>
<g>
</g>
<g>
</g>
<g>
</g>
<g>
</g>
<g>
</g>
<g>
</g>
<g>
</g>
<g>
</g>
<g>
</g>
<g>
</g>
<g>
</g>
<g>
</g>
<g>
</g>
<g>
</g>
</svg>
