<?xml version="1.0" encoding="iso-8859-1"?>
<!-- Generator: Adobe Illustrator 19.0.0, SVG Export Plug-In . SVG Version: 6.00 Build 0)  -->
<svg version="1.1" id="Layer_1" xmlns="http://www.w3.org/2000/svg" xmlns:xlink="http://www.w3.org/1999/xlink" x="0px" y="0px"
	 viewBox="0 0 512 512" style="enable-background:new 0 0 512 512;" xml:space="preserve">
<circle style="fill:#273B7A;" cx="256" cy="256" r="256"/>
<path style="fill:#121149;" d="M261.246,511.934c116.858-2.351,214.5-82.992,242.605-191.628L310.075,126.53l-26.434,34.778
	l-35.766-35.766l-20.32,10.073l0,0l-1.796,55.703l133.675,133.673v34.516l-92.655-92.655l-5.667,12.105l-79.789-79.789
	l-6.697,10.045l-24.712,23.74l27.741,26.917l-1.424,33.433l-43.225,33.895l30.024,29.374l-16.313,40.831L261.246,511.934z"/>
<path style="fill:#FF314F;" d="M252.725,217.191c1.569,2.313,4.984,2.313,6.553,0c12.524-18.479,56.68-41.425,56.68-71.137
	c0-20.49-13.422-29.979-29.979-29.979S256,129.498,256,146.054c0-16.556-13.422-29.979-29.979-29.979s-29.979,9.488-29.979,29.979
	C196.043,175.766,240.199,198.713,252.725,217.191z"/>
<path style="fill:#A30F44;" d="M285.979,116.076c-16.556,0-29.979,13.422-29.979,29.979c0-0.072-0.01-0.143-0.01-0.217v73.088
	c1.25,0.003,2.501-0.574,3.287-1.734c12.524-18.479,56.68-41.425,56.68-71.137C315.957,125.564,302.535,116.076,285.979,116.076z"/>
<circle style="fill:#FEE187;" cx="255.845" cy="277.687" r="15.4"/>
<path style="fill:#FFC61B;" d="M269.983,395.223V357.51c0-2.603,2.11-4.715,4.715-4.715l0,0c2.603,0,4.715-2.11,4.715-4.715v-39.514
	c0-1.786-1.009-3.419-2.607-4.217l-15.255-7.628c-0.655-0.328-1.376-0.498-2.108-0.498h-7.202c-0.733,0-1.453,0.171-2.108,0.498
	l-15.255,7.628c-1.596,0.798-2.607,2.431-2.607,4.217v39.514c0,2.603,2.11,4.715,4.715,4.715l0,0c2.603,0,4.715,2.11,4.715,4.715
	v37.712c0,2.603,2.11,4.715,4.715,4.715h18.856C267.873,399.938,269.983,397.826,269.983,395.223z"/>
<circle style="fill:#FEE187;" cx="166.271" cy="216.66" r="23.087"/>
<path style="fill:#FFC61B;" d="M187.47,392.87v-56.537c0-3.903,3.163-7.066,7.066-7.066l0,0c3.903,0,7.066-3.163,7.066-7.066
	v-59.237c0-2.677-1.512-5.123-3.906-6.322l-22.869-11.435c-0.981-0.491-2.064-0.746-3.16-0.746H160.87
	c-1.096,0-2.179,0.255-3.16,0.746l-22.869,11.435c-2.395,1.196-3.906,3.644-3.906,6.322v59.235c0,3.903,3.163,7.066,7.066,7.066l0,0
	c3.903,0,7.066,3.163,7.066,7.066v56.537c0,3.903,3.163,7.066,7.066,7.066h28.269C184.306,399.938,187.47,396.772,187.47,392.87z"/>
<circle style="fill:#FEE187;" cx="345.419" cy="216.66" r="23.087"/>
<g>
	<path style="fill:#FFC61B;" d="M366.613,392.87v-56.537c0-3.903,3.163-7.066,7.066-7.066l0,0c3.903,0,7.066-3.163,7.066-7.066
		v-59.237c0-2.677-1.512-5.123-3.906-6.322l-22.869-11.435c-0.981-0.491-2.064-0.746-3.16-0.746h-10.797
		c-1.096,0-2.179,0.255-3.16,0.746l-22.869,11.435c-2.395,1.196-3.906,3.644-3.906,6.322v59.235c0,3.903,3.163,7.066,7.066,7.066
		l0,0c3.903,0,7.066,3.163,7.066,7.066v56.537c0,3.903,3.163,7.066,7.066,7.066h28.269
		C363.449,399.938,366.613,396.772,366.613,392.87z"/>
	<path style="fill:#FFC61B;" d="M271.239,277.685c0-8.451-6.809-15.303-15.239-15.391v30.782
		C264.43,292.99,271.239,286.136,271.239,277.685z"/>
</g>
<path style="fill:#EAA22F;" d="M276.804,304.352l-15.255-7.628c-0.655-0.328-1.376-0.498-2.108-0.498H256v103.708h9.268
	c2.603,0,4.713-2.11,4.713-4.713v-37.712c0-2.603,2.11-4.713,4.713-4.713s4.715-2.11,4.715-4.715v-39.514
	C279.411,306.785,278.402,305.152,276.804,304.352z"/>
<path style="fill:#FFC61B;" d="M166.269,193.577c-0.164,0-0.322,0.021-0.486,0.024v46.123c0.164,0.003,0.322,0.024,0.486,0.024
	c12.75,0,23.087-10.337,23.087-23.087C189.354,203.912,179.019,193.577,166.269,193.577z"/>
<path style="fill:#EAA22F;" d="M197.698,256.641l-22.869-11.435c-0.981-0.49-2.064-0.746-3.16-0.746h-5.884v155.476h14.62
	c3.903,0,7.066-3.163,7.066-7.066v-56.537c0-3.903,3.163-7.066,7.066-7.066s7.066-3.163,7.066-7.068v-59.237
	C201.604,260.286,200.092,257.838,197.698,256.641z"/>
<path style="fill:#FFC61B;" d="M345.412,193.577c-0.116,0-0.228,0.016-0.343,0.017v46.137c0.116,0.002,0.228,0.017,0.343,0.017
	c12.75,0,23.087-10.337,23.087-23.087C368.497,203.912,358.162,193.577,345.412,193.577z"/>
<path style="fill:#EAA22F;" d="M376.841,256.641l-22.869-11.435c-0.981-0.49-2.064-0.746-3.16-0.746h-5.742v155.476h14.477
	c3.903,0,7.066-3.163,7.066-7.066v-56.537c0-3.903,3.163-7.066,7.066-7.066l0,0c3.903,0,7.066-3.163,7.066-7.068v-59.237
	C380.747,260.286,379.235,257.838,376.841,256.641z"/>
<g>
</g>
<g>
</g>
<g>
</g>
<g>
</g>
<g>
</g>
<g>
</g>
<g>
</g>
<g>
</g>
<g>
</g>
<g>
</g>
<g>
</g>
<g>
</g>
<g>
</g>
<g>
</g>
<g>
</g>
</svg>
