<?xml version="1.0" encoding="iso-8859-1"?>
<!-- Generator: Adobe Illustrator 19.0.0, SVG Export Plug-In . SVG Version: 6.00 Build 0)  -->
<svg version="1.1" id="Layer_1" xmlns="http://www.w3.org/2000/svg" xmlns:xlink="http://www.w3.org/1999/xlink" x="0px" y="0px"
	 viewBox="0 0 512 512" style="enable-background:new 0 0 512 512;" xml:space="preserve">
<circle style="fill:#273B7A;" cx="256" cy="256" r="256"/>
<path style="fill:#121149;" d="M296.215,508.821c51.545-8.156,101.079-32.078,140.803-71.802s63.647-89.259,71.802-140.803
	L334.61,122.004L207.588,194.37l17.67,74.559L177.39,389.996L296.215,508.821z"/>
<rect x="177.39" y="122.004" style="fill:#FF5419;" width="157.22" height="58.958"/>
<g>
	<rect x="256" y="122.004" style="fill:#C92F00;" width="78.61" height="58.958"/>
	<polygon style="fill:#C92F00;" points="334.61,389.996 177.39,210.144 177.39,122.004 382.254,349.499 	"/>
</g>
<g>
	<polygon style="fill:#930000;" points="177.39,168.876 177.39,210.144 334.61,389.996 358.102,370.028 	"/>
	<polygon style="fill:#930000;" points="177.39,389.996 334.61,210.144 334.61,122.004 129.746,349.499 	"/>
</g>
<polygon style="fill:#770303;" points="154.621,370.643 177.39,389.996 334.61,210.144 334.61,165.731 "/>
<g>
</g>
<g>
</g>
<g>
</g>
<g>
</g>
<g>
</g>
<g>
</g>
<g>
</g>
<g>
</g>
<g>
</g>
<g>
</g>
<g>
</g>
<g>
</g>
<g>
</g>
<g>
</g>
<g>
</g>
</svg>
