<?xml version="1.0" encoding="iso-8859-1"?>
<!-- Generator: Adobe Illustrator 19.0.0, SVG Export Plug-In . SVG Version: 6.00 Build 0)  -->
<svg version="1.1" id="Layer_1" xmlns="http://www.w3.org/2000/svg" xmlns:xlink="http://www.w3.org/1999/xlink" x="0px" y="0px"
	 viewBox="0 0 512 512" style="enable-background:new 0 0 512 512;" xml:space="preserve">
<circle style="fill:#273B7A;" cx="256" cy="256" r="256"/>
<path style="fill:#121149;" d="M236.775,385.595l109.873,109.873c86.804-32.877,151.074-111.576,163.257-206.586L368.604,147.58
	l-44.22,6.603l-61.033-33.675l-48.497,28.198l20.092,20.168l-42.293,103.929L236.775,385.595z"/>
<path style="fill:#FFFFFF;" d="M223.372,308.498c-1.91-1.372-2.346-4.036-0.974-5.947l82.061-114.181
	c1.372-1.91,4.036-2.346,5.947-0.974s2.346,4.036,0.974,5.947l-82.061,114.181C227.945,309.434,225.283,309.87,223.372,308.498z"/>
<g>
	<path style="fill:#D0D1D3;" d="M310.422,187.409l-87.295,120.872c0.084,0.071,0.155,0.152,0.247,0.217
		c1.91,1.374,4.574,0.938,5.947-0.972l82.061-114.181C312.749,191.438,312.318,188.787,310.422,187.409z"/>
	<path style="fill:#D0D1D3;" d="M255.997,331.947c-0.315-0.226-0.603-0.5-0.857-0.819c-1.46-1.846-1.148-4.525,0.698-5.985
		l114.685-90.734c1.846-1.46,4.523-1.146,5.985,0.698c1.46,1.846,1.148,4.525-0.698,5.985l-114.685,90.734
		C259.6,333.033,257.502,333.028,255.997,331.947z"/>
</g>
<path style="fill:#FFFFFF;" d="M190.747,285.051c-1.505-1.081-2.179-3.069-1.52-4.899l49.438-137.626
	c0.796-2.215,3.236-3.365,5.451-2.57c2.212,0.798,3.365,3.236,2.57,5.451l-49.438,137.626c-0.796,2.215-3.236,3.365-5.451,2.57
	C191.414,285.465,191.062,285.277,190.747,285.051z"/>
<path style="fill:#FF7F4F;" d="M369.14,243.352c7.037,5.058,9.807,13.819,7.606,21.707l0.795,0.572
	c27.61-44.497,16.403-103.4-26.755-134.418s-102.56-22.862-135.933,17.494l0.795,0.572c6.775-4.601,15.963-4.768,23,0.29
	s9.807,13.819,7.606,21.707l2.017,1.45c6.775-4.601,15.963-4.768,23,0.29s9.807,13.819,7.606,21.707l2.017,1.45
	c6.775-4.601,15.963-4.768,23,0.29c7.037,5.058,9.807,13.819,7.606,21.707l2.017,1.45c6.775-4.601,15.963-4.768,23,0.29
	s9.807,13.819,7.606,21.707l2.017,1.45C352.915,238.461,362.103,238.294,369.14,243.352z"/>
<path style="fill:#D35933;" d="M350.785,131.212c-0.028-0.019-0.055-0.038-0.083-0.057l-46.894,65.248
	c0.028,0.019,0.057,0.036,0.084,0.055c7.037,5.058,9.807,13.819,7.606,21.707l2.017,1.45c6.775-4.601,15.963-4.768,23,0.29
	s9.807,13.819,7.606,21.707l2.017,1.45c6.775-4.601,15.963-4.768,23,0.29c7.037,5.058,9.807,13.819,7.606,21.707l0.795,0.572
	C405.152,221.132,393.943,162.23,350.785,131.212z"/>
<path style="fill:#FFFFFF;" d="M344.654,241.993l0.479,0.343c28.758-43.673,31.616-92.465,5.654-111.125
	c-25.962-18.66-71.297-0.395-103.524,40.786l0.479,0.343l0.529,0.381c6.775-4.601,15.963-4.768,23,0.29s9.807,13.819,7.606,21.707
	l2.017,1.45c6.775-4.601,15.963-4.768,23,0.29c7.037,5.058,9.807,13.819,7.606,21.707l2.017,1.45c6.775-4.601,15.963-4.768,23,0.29
	c7.037,5.058,9.807,13.819,7.606,21.707L344.654,241.993z"/>
<path style="fill:#D0D1D3;" d="M350.785,131.212c-0.028-0.019-0.057-0.036-0.084-0.055l-46.892,65.246
	c0.028,0.019,0.057,0.036,0.084,0.055c7.037,5.058,9.807,13.819,7.606,21.707l2.017,1.45c6.775-4.601,15.963-4.768,23,0.29
	s9.807,13.819,7.606,21.707l0.529,0.381l0.479,0.343C373.889,198.665,376.748,149.871,350.785,131.212z"/>
<path style="fill:#FF7F4F;" d="M312.508,218.891c29.915-42.842,46.932-81.46,38.278-87.68c-8.654-6.22-39.831,22.221-70.901,64.233
	l1.008,0.724c6.775-4.601,15.963-4.768,23,0.29s9.807,13.819,7.606,21.707L312.508,218.891z"/>
<path style="fill:#D35933;" d="M350.785,131.212c-0.028-0.019-0.062-0.029-0.09-0.048l-46.887,65.239
	c0.028,0.019,0.057,0.036,0.084,0.055c7.037,5.058,9.807,13.819,7.606,21.707l1.008,0.724
	C342.423,176.049,359.44,137.431,350.785,131.212z"/>
<path style="fill:#FFC61B;" d="M236.775,385.595l-90.75-65.222c-5.515-3.963-6.773-11.647-2.808-17.161l31.118-43.298
	c3.963-5.515,11.647-6.773,17.161-2.808l90.75,65.222c5.515,3.963,6.773,11.647,2.808,17.161l-31.118,43.298
	C249.973,388.301,242.29,389.558,236.775,385.595z"/>
<path style="fill:#EAA22F;" d="M282.246,322.326l-45.596-32.77l-45.618,63.164l45.742,32.875c5.515,3.963,13.198,2.707,17.161-2.808
	l31.118-43.298C289.018,333.972,287.761,326.289,282.246,322.326z"/>
<g>
</g>
<g>
</g>
<g>
</g>
<g>
</g>
<g>
</g>
<g>
</g>
<g>
</g>
<g>
</g>
<g>
</g>
<g>
</g>
<g>
</g>
<g>
</g>
<g>
</g>
<g>
</g>
<g>
</g>
</svg>
