<?xml version="1.0" encoding="iso-8859-1"?>
<!-- Generator: Adobe Illustrator 19.0.0, SVG Export Plug-In . SVG Version: 6.00 Build 0)  -->
<svg version="1.1" id="Layer_1" xmlns="http://www.w3.org/2000/svg" xmlns:xlink="http://www.w3.org/1999/xlink" x="0px" y="0px"
	 viewBox="0 0 512 512" style="enable-background:new 0 0 512 512;" xml:space="preserve">
<circle style="fill:#273B7A;" cx="256" cy="256" r="256"/>
<path style="fill:#121149;" d="M304.056,507.476C413.334,486.719,498,396.514,510.412,284.503L371.148,145.239l-71.785,5.042
	l-28.746-28.746h-28.263v27.243l-89.122-1.422L116.553,312.07l87.202,86.878l-6.682,2.906L304.056,507.476z"/>
<path style="fill:#FEE187;" d="M153.145,147.687l-43.098,142.222c-0.552,1.824,0.478,3.748,2.3,4.299
	c1.822,0.559,3.748-0.476,4.299-2.3l39.367-129.914v-16.687C154.683,145.48,153.543,146.377,153.145,147.687z"/>
<g>
	<path style="fill:#FFC61B;" d="M202.842,289.909l-43.098-142.222c-0.441-1.453-1.781-2.448-3.3-2.448
		c-0.15,0-0.284,0.052-0.431,0.071v16.687l0.431-1.421l39.798,131.334c0.452,1.488,1.819,2.45,3.298,2.45
		c0.331,0,0.669-0.048,1.002-0.15C202.364,293.657,203.393,291.733,202.842,289.909z"/>
	<path style="fill:#FFC61B;" d="M101.388,285.88c6.366,24.462,28.6,42.524,55.056,42.524s48.69-18.06,55.056-42.524L101.388,285.88
		L101.388,285.88z"/>
</g>
<path style="fill:#EAA22F;" d="M156.013,285.88v42.513c0.143,0.002,0.286,0.009,0.431,0.009c26.455,0,48.69-18.06,55.056-42.524
	h-55.487V285.88z"/>
<path style="fill:#FFC61B;" d="M401.953,289.909l-43.098-142.222c-0.441-1.453-1.781-2.448-3.3-2.448
	c-0.05,0-0.093,0.021-0.143,0.022v15.786l0.143-0.472l39.798,131.334c0.452,1.488,1.819,2.45,3.298,2.45
	c0.331,0,0.669-0.048,1.002-0.15C401.475,293.657,402.504,291.733,401.953,289.909z"/>
<path style="fill:#FEE187;" d="M352.256,147.687l-43.098,142.222c-0.552,1.824,0.478,3.748,2.3,4.299
	c1.82,0.559,3.748-0.476,4.299-2.3l39.655-130.862v-15.786C353.956,145.325,352.682,146.282,352.256,147.687z"/>
<path style="fill:#FFC61B;" d="M300.499,285.88c6.366,24.462,28.6,42.524,55.056,42.524s48.69-18.06,55.056-42.524L300.499,285.88
	L300.499,285.88z"/>
<path style="fill:#EAA22F;" d="M355.412,285.88v42.52c0.048,0,0.095,0.003,0.143,0.003c26.455,0,48.69-18.06,55.056-42.524
	L355.412,285.88L355.412,285.88z"/>
<path style="fill:#FEE187;" d="M256,152.566c-10.456,0-18.963-8.507-18.963-18.963S245.544,114.64,256,114.64
	c10.455,0,18.963,8.507,18.963,18.963S266.455,152.566,256,152.566z M256,121.535c-6.653,0-12.067,5.415-12.067,12.067
	S249.347,145.67,256,145.67c6.653,0,12.067-5.415,12.067-12.067S262.653,121.535,256,121.535z"/>
<path style="fill:#FFC61B;" d="M274.963,133.603c0-10.455-8.507-18.963-18.963-18.963v6.896c6.653,0,12.067,5.415,12.067,12.067
	S262.653,145.67,256,145.67v6.896C266.455,152.566,274.963,144.058,274.963,133.603z"/>
<rect x="247.38" y="150.842" style="fill:#FEE187;" width="17.239" height="247.38"/>
<rect x="256" y="150.842" style="fill:#FFC61B;" width="8.62" height="247.38"/>
<path style="fill:#E09112;" d="M364.606,159.461H147.394c-4.76,0-8.62-3.86-8.62-8.62l0,0c0-4.76,3.86-8.62,8.62-8.62h217.212
	c4.76,0,8.62,3.86,8.62,8.62l0,0C373.226,155.601,369.366,159.461,364.606,159.461z"/>
<g>
	<path style="fill:#FF5419;" d="M364.606,142.222H256v17.239h108.606c4.76,0,8.62-3.86,8.62-8.62S369.366,142.222,364.606,142.222z"
		/>
	<path style="fill:#FF5419;" d="M207.731,397.36h96.539v-12.067c0-6.665-5.403-12.067-12.067-12.067h-72.404
		c-6.665,0-12.067,5.403-12.067,12.067V397.36z"/>
</g>
<path style="fill:#C92F00;" d="M304.269,385.293c0-6.665-5.403-12.067-12.067-12.067H256v24.135h48.269V385.293z"/>
<path style="fill:#FEE187;" d="M312.889,402.532H199.111c-1.903,0-3.448-1.545-3.448-3.448s1.545-3.448,3.448-3.448h113.778
	c1.903,0,3.448,1.545,3.448,3.448S314.792,402.532,312.889,402.532z"/>
<path style="fill:#FFC61B;" d="M312.889,395.636H256v6.896h56.889c1.903,0,3.448-1.545,3.448-3.448S314.792,395.636,312.889,395.636
	z"/>
<g>
</g>
<g>
</g>
<g>
</g>
<g>
</g>
<g>
</g>
<g>
</g>
<g>
</g>
<g>
</g>
<g>
</g>
<g>
</g>
<g>
</g>
<g>
</g>
<g>
</g>
<g>
</g>
<g>
</g>
</svg>
