<?xml version="1.0" encoding="iso-8859-1"?>
<!-- Generator: Adobe Illustrator 19.0.0, SVG Export Plug-In . SVG Version: 6.00 Build 0)  -->
<svg version="1.1" id="Layer_1" xmlns="http://www.w3.org/2000/svg" xmlns:xlink="http://www.w3.org/1999/xlink" x="0px" y="0px"
	 viewBox="0 0 512 512" style="enable-background:new 0 0 512 512;" xml:space="preserve">
<circle style="fill:#FFC61B;" cx="256" cy="256" r="256"/>
<path style="fill:#EAA22F;" d="M508.769,296.681L363.041,150.952l-131.75,161.937l-9.481,6.896l-67.291,46.644l142.315,142.315
	C405.561,491.313,491.403,405.428,508.769,296.681z"/>
<circle style="fill:#B54324;" cx="256" cy="256" r="149.98"/>
<path style="fill:#930000;" d="M256,106.02c-0.191,0-0.383,0.007-0.574,0.007v299.946c0.191,0,0.383,0.007,0.574,0.007
	c82.832,0,149.98-67.148,149.98-149.98S338.832,106.02,256,106.02z"/>
<circle style="fill:#D35933;" cx="256" cy="256" r="103.434"/>
<path style="fill:#B54324;" d="M256,152.566c-0.193,0-0.381,0.014-0.574,0.014v206.839c0.193,0,0.381,0.014,0.574,0.014
	c57.125,0,103.434-46.309,103.434-103.434S313.125,152.566,256,152.566z"/>
<polygon style="fill:#FFFFFF;" points="312.027,240.719 271.281,240.719 271.281,199.973 240.719,199.973 240.719,240.719 
	199.973,240.719 199.973,271.281 240.719,271.281 240.719,312.027 271.281,312.027 271.281,271.281 312.027,271.281 "/>
<polygon style="fill:#D0D1D3;" points="271.281,240.719 271.281,199.973 255.426,199.973 255.426,312.027 271.281,312.027 
	271.281,271.281 312.027,271.281 312.027,240.719 "/>
<g>
</g>
<g>
</g>
<g>
</g>
<g>
</g>
<g>
</g>
<g>
</g>
<g>
</g>
<g>
</g>
<g>
</g>
<g>
</g>
<g>
</g>
<g>
</g>
<g>
</g>
<g>
</g>
<g>
</g>
</svg>
