<?xml version="1.0" encoding="iso-8859-1"?>
<!-- Generator: Adobe Illustrator 19.0.0, SVG Export Plug-In . SVG Version: 6.00 Build 0)  -->
<svg version="1.1" id="Layer_1" xmlns="http://www.w3.org/2000/svg" xmlns:xlink="http://www.w3.org/1999/xlink" x="0px" y="0px"
	 viewBox="0 0 512 512" style="enable-background:new 0 0 512 512;" xml:space="preserve">
<circle style="fill:#386895;" cx="256" cy="256" r="256"/>
<path style="fill:#273B7A;" d="M299.806,508.252c106.277-18.327,190.119-102.169,208.446-208.446L370.991,162.545l-169.213,8.759
	l-16.817,0.009l-6.249,5.818l-2.729,4.167l0.143,8.332l-13.581,181.362L299.806,508.252z"/>
<path style="fill:#FF7F4F;" d="M155.434,155.434c-55.541,55.541-55.541,145.591,0,201.133s145.591,55.541,201.133,0
	s55.541-145.591,0-201.133S210.975,99.892,155.434,155.434z M306.283,306.283c-27.77,27.77-72.795,27.77-100.566,0
	s-27.77-72.795,0-100.566s72.795-27.77,100.566,0S334.053,278.512,306.283,306.283z"/>
<path style="fill:#D35933;" d="M356.566,155.434c-27.917-27.917-64.552-41.789-101.14-41.643v71.111
	c18.391-0.148,36.826,6.784,50.857,20.814c27.77,27.77,27.77,72.795,0,100.566c-14.031,14.031-32.468,20.963-50.857,20.814v71.111
	c36.588,0.147,73.225-13.726,101.14-41.643C412.108,301.025,412.108,210.975,356.566,155.434z"/>
<path style="fill:#FFFFFF;" d="M223.494,201.959l-21.535,21.535c-2.469,2.469-6.47,2.469-8.938,0l-52.01-52.01
	c-2.469-2.469-2.469-6.47,0-8.938l21.535-21.535c2.469-2.469,6.47-2.469,8.938,0l52.01,52.01
	C225.963,195.487,225.963,199.49,223.494,201.959z"/>
<g>
	<path style="fill:#D0D1D3;" d="M370.991,349.456l-21.535,21.535c-2.469,2.469-6.47,2.469-8.938,0l-52.01-52.01
		c-2.469-2.469-2.469-6.47,0-8.938l21.535-21.535c2.469-2.469,6.47-2.469,8.938,0l52.01,52.01
		C373.46,342.985,373.46,346.988,370.991,349.456z"/>
	<path style="fill:#D0D1D3;" d="M310.043,223.494l-21.535-21.535c-2.469-2.469-2.469-6.47,0-8.938l52.01-52.01
		c2.469-2.469,6.47-2.469,8.938,0l21.535,21.535c2.469,2.469,2.469,6.47,0,8.938l-52.01,52.01
		C316.513,225.963,312.51,225.963,310.043,223.494z"/>
</g>
<path style="fill:#FFFFFF;" d="M162.545,370.991l-21.535-21.535c-2.469-2.469-2.469-6.47,0-8.938l52.01-52.01
	c2.469-2.469,6.47-2.469,8.938,0l21.535,21.535c2.469,2.469,2.469,6.47,0,8.938l-52.01,52.01
	C169.015,373.46,165.012,373.46,162.545,370.991z"/>
<g>
</g>
<g>
</g>
<g>
</g>
<g>
</g>
<g>
</g>
<g>
</g>
<g>
</g>
<g>
</g>
<g>
</g>
<g>
</g>
<g>
</g>
<g>
</g>
<g>
</g>
<g>
</g>
<g>
</g>
</svg>
