<?xml version="1.0" encoding="iso-8859-1"?>
<!-- Generator: Adobe Illustrator 19.0.0, SVG Export Plug-In . SVG Version: 6.00 Build 0)  -->
<svg version="1.1" id="Layer_1" xmlns="http://www.w3.org/2000/svg" xmlns:xlink="http://www.w3.org/1999/xlink" x="0px" y="0px"
	 viewBox="0 0 512 512" style="enable-background:new 0 0 512 512;" xml:space="preserve">
<circle style="fill:#273B7A;" cx="256" cy="256" r="256"/>
<path style="fill:#121149;" d="M511.572,270.657l-113.35-113.35L215.416,281.069l-7.83,6.685l-99.625,71.747l152.443,152.443
	C394.855,509.673,504.058,403.768,511.572,270.657z"/>
<polygon style="fill:#FFFFFF;" points="99.556,224.97 256,143.084 412.444,224.97 256,285.306 "/>
<polygon style="fill:#D0D1D3;" points="412.444,224.97 256,143.084 255.426,143.384 255.426,285.086 256,285.306 "/>
<rect x="113.778" y="157.306" style="fill:#8BC180;" width="284.444" height="142.222"/>
<rect x="255.431" y="157.306" style="fill:#6CAF5F;" width="142.791" height="142.222"/>
<path style="fill:#477F3C;" d="M362.427,174.373H149.573c-4.353,9.113-12.085,16.296-21.573,19.946v68.199
	c9.488,3.648,17.22,10.831,21.573,19.946h212.854c4.353-9.113,12.085-16.296,21.573-19.946v-68.199
	C374.512,190.669,366.78,183.486,362.427,174.373z"/>
<path style="fill:#2E5E24;" d="M362.427,174.373H255.426v108.089h107.001c4.353-9.113,12.085-16.296,21.573-19.946v-68.198
	C374.512,190.669,366.78,183.486,362.427,174.373z"/>
<circle style="fill:#8BC180;" cx="256" cy="228.417" r="28.444"/>
<path style="fill:#6CAF5F;" d="M256,199.973c-0.195,0-0.381,0.026-0.574,0.029v56.83c0.193,0.003,0.381,0.029,0.574,0.029
	c15.71,0,28.444-12.734,28.444-28.444C284.444,212.708,271.71,199.973,256,199.973z"/>
<path style="fill:#FFC61B;" d="M256,281.859L99.556,224.97v112.988c0,17.573,14.246,31.82,31.822,31.82h249.247
	c17.573,0,31.82-14.246,31.82-31.82V224.97L256,281.859z"/>
<path style="fill:#EAA22F;" d="M256,281.859l-0.574-0.209v88.128h125.199c17.573,0,31.82-14.246,31.82-31.82V224.97L256,281.859z"/>
<path style="fill:#FF314F;" d="M166.169,340.43c0.817,1.205,2.596,1.205,3.413,0c6.525-9.626,29.529-21.58,29.529-37.059
	c0-10.674-6.992-15.617-15.617-15.617s-15.617,6.992-15.617,15.617c0-8.625-6.992-15.617-15.617-15.617s-15.617,4.942-15.617,15.617
	C136.642,318.848,159.644,330.804,166.169,340.43z"/>
<path style="fill:#A30F44;" d="M183.493,287.753c-8.216,0-14.936,6.349-15.557,14.407v39.167c0.628-0.019,1.25-0.314,1.646-0.896
	c6.525-9.626,29.527-21.58,29.527-37.059C199.111,292.697,192.119,287.753,183.493,287.753z"/>
<g>
</g>
<g>
</g>
<g>
</g>
<g>
</g>
<g>
</g>
<g>
</g>
<g>
</g>
<g>
</g>
<g>
</g>
<g>
</g>
<g>
</g>
<g>
</g>
<g>
</g>
<g>
</g>
<g>
</g>
</svg>
