<?xml version="1.0" encoding="iso-8859-1"?>
<!-- Generator: Adobe Illustrator 19.0.0, SVG Export Plug-In . SVG Version: 6.00 Build 0)  -->
<svg version="1.1" id="Layer_1" xmlns="http://www.w3.org/2000/svg" xmlns:xlink="http://www.w3.org/1999/xlink" x="0px" y="0px"
	 viewBox="0 0 512 512" style="enable-background:new 0 0 512 512;" xml:space="preserve">
<circle style="fill:#273B7A;" cx="256" cy="256" r="256"/>
<path style="fill:#121149;" d="M295.614,508.947C418.187,489.905,512,383.912,512,256c0-0.347-0.012-0.691-0.014-1.038
	L370.393,113.369l-19.727,18.187l-18.187-18.187l-9.93,14.738l-1.939,4.741l-5.377,17.865l52.781,52.781l-70.201,43.241
	l-107.961-107.96l-15.091,12.276l-12.278-12.278l-6.153,6.654l-1.753,2.184l-7.59,15.145l70.801,72.845l-104.01,91.51
	L295.614,508.947z"/>
<rect x="113.778" y="184.889" style="fill:#8BC180;" width="284.444" height="142.222"/>
<rect x="255.707" y="184.889" style="fill:#6CAF5F;" width="142.515" height="142.222"/>
<path style="fill:#477F3C;" d="M362.427,201.956H149.573c-4.353,9.113-12.085,16.296-21.573,19.946v68.199
	c9.488,3.648,17.22,10.831,21.573,19.946h212.854c4.353-9.113,12.085-16.296,21.573-19.946v-68.199
	C374.512,218.252,366.78,211.068,362.427,201.956z"/>
<path style="fill:#2E5E24;" d="M362.427,201.956H255.714v108.089h106.713c4.353-9.113,12.085-16.296,21.573-19.946v-68.198
	C374.512,218.252,366.78,211.068,362.427,201.956z"/>
<circle style="fill:#8BC180;" cx="256" cy="256" r="28.444"/>
<path style="fill:#6CAF5F;" d="M256,227.556c-0.097,0-0.19,0.014-0.286,0.014v56.86c0.097,0.002,0.19,0.014,0.286,0.014
	c15.71,0,28.444-12.734,28.444-28.444C284.444,240.29,271.71,227.556,256,227.556z"/>
<path style="fill:#FFAD9E;" d="M334.998,169.491c0.969,1.431,3.081,1.431,4.051,0c7.742-11.423,35.038-25.607,35.038-43.975
	c0-12.667-8.297-18.532-18.532-18.532c-10.235,0-18.532,8.297-18.532,18.532c0-10.235-8.297-18.532-18.532-18.532
	s-18.532,5.865-18.532,18.532C299.96,143.884,327.256,158.068,334.998,169.491z"/>
<path style="fill:#FF6262;" d="M336.987,170.56c0.783,0.012,1.569-0.343,2.06-1.069c7.744-11.423,35.04-25.607,35.04-43.975
	c0-12.667-8.297-18.532-18.532-18.532c-10.235,0-18.532,8.297-18.532,18.532L336.987,170.56z"/>
<path style="fill:#FFAD9E;" d="M173.658,382.035c0.631,0.931,2.007,0.931,2.638,0c5.042-7.439,22.816-16.675,22.816-28.634
	c0-8.249-5.403-12.067-12.067-12.067s-12.067,5.403-12.067,12.067c0-6.665-5.403-12.067-12.067-12.067s-12.067,3.818-12.067,12.067
	C150.842,365.361,168.615,374.598,173.658,382.035z"/>
<path style="fill:#FF6262;" d="M174.94,382.726c0.514,0.012,1.031-0.214,1.353-0.69c5.042-7.439,22.816-16.675,22.816-28.634
	c0-8.249-5.403-12.067-12.067-12.067c-6.665,0-12.067,5.403-12.067,12.067L174.94,382.726z"/>
<path style="fill:#FF314F;" d="M164.897,179.883c0.698,1.031,2.22,1.031,2.92,0c5.582-8.235,25.26-18.461,25.26-31.703
	c0-9.132-5.982-13.36-13.36-13.36s-13.36,5.982-13.36,13.36c0-7.378-5.982-13.36-13.36-13.36s-13.36,4.229-13.36,13.36
	C139.636,161.421,159.315,171.648,164.897,179.883z"/>
<path style="fill:#A30F44;" d="M179.717,134.82c-7.254,0-13.146,5.785-13.341,12.993v32.839c0.548-0.005,1.096-0.259,1.441-0.769
	c5.582-8.235,25.26-18.461,25.26-31.703C193.077,139.047,187.095,134.82,179.717,134.82z"/>
<g>
</g>
<g>
</g>
<g>
</g>
<g>
</g>
<g>
</g>
<g>
</g>
<g>
</g>
<g>
</g>
<g>
</g>
<g>
</g>
<g>
</g>
<g>
</g>
<g>
</g>
<g>
</g>
<g>
</g>
</svg>
