<?xml version="1.0" encoding="iso-8859-1"?>
<!-- Generator: Adobe Illustrator 19.0.0, SVG Export Plug-In . SVG Version: 6.00 Build 0)  -->
<svg version="1.1" id="Layer_1" xmlns="http://www.w3.org/2000/svg" xmlns:xlink="http://www.w3.org/1999/xlink" x="0px" y="0px"
	 viewBox="0 0 512 512" style="enable-background:new 0 0 512 512;" xml:space="preserve">
<circle style="fill:#273B7A;" cx="256" cy="256" r="256"/>
<path style="fill:#121149;" d="M296.443,148.687l-23.131,21.333l0,0l-2.132,0.988l-22.321-22.321l-7.937,8.902l18.753,18.753
	l-35.371,16.394l162.419,162.42l-1.624,1.624l-33.556-33.556l-2.317,4.156l-29.336-29.336l-2.663,2.95l-34.218-34.218
	l-11.421,16.162l32.547,32.547l-5.896,4.842l-9.195,2.476l-172.054,34.133L271.57,511.517
	c102.612-6.158,188.921-72.747,223.823-164.667L296.443,148.687z"/>
<path style="fill:#FFFFFF;" d="M324.956,312.889c0-15.71-15.436-28.444-34.478-28.444c0-15.71-15.436-28.444-34.478-28.444
	s-34.478,12.734-34.478,28.444c-19.042,0-34.478,12.734-34.478,28.444c-19.042,0-34.478,12.734-34.478,28.444
	s15.436,28.444,34.478,28.444s34.478-12.734,34.478-28.444c0,15.71,15.436,28.444,34.478,28.444s34.478-12.734,34.478-28.444
	c0,15.71,15.436,28.444,34.478,28.444c19.042,0,34.478-12.734,34.478-28.444S343.999,312.889,324.956,312.889z"/>
<path style="fill:#D0D1D3;" d="M324.956,312.889c0-15.71-15.436-28.444-34.478-28.444c0-15.71-15.436-28.444-34.478-28.444
	c-0.193,0-0.381,0.021-0.574,0.024v113.73c0.193,0.003,0.381,0.024,0.574,0.024c19.042,0,34.478-12.734,34.478-28.444
	c0,15.71,15.436,28.444,34.478,28.444c19.042,0,34.478-12.734,34.478-28.444C359.434,325.623,343.999,312.889,324.956,312.889z"/>
<path style="fill:#FF6262;" d="M253.464,220.475c1.214,1.791,3.856,1.791,5.07,0c9.694-14.3,43.865-32.059,43.865-55.053
	c0-15.858-10.387-23.2-23.2-23.2s-23.2,10.387-23.2,23.2c0-12.814-10.387-23.2-23.2-23.2c-12.814,0-23.2,7.342-23.2,23.2
	C209.599,188.416,243.772,206.174,253.464,220.475z"/>
<path style="fill:#FF314F;" d="M255.912,221.808c0.993,0.028,1.998-0.41,2.624-1.333c9.694-14.3,43.865-32.059,43.865-55.053
	c0-15.858-10.387-23.2-23.2-23.2c-12.814,0-23.2,10.387-23.2,23.2L255.912,221.808z"/>
<path style="fill:#FFC61B;" d="M337.037,398.222H174.961c-17.129,0-31.017-13.886-31.017-31.017v-25.872h224.108v25.872
	C368.054,384.336,354.168,398.222,337.037,398.222z"/>
<path style="fill:#EAA22F;" d="M255.426,341.333v56.889h81.613c17.129,0,31.015-13.886,31.015-31.015v-25.874H255.426z"/>
<path style="fill:#FEE187;" d="M387.017,360.296H124.983c-6.189,0-11.205-5.017-11.205-11.205l0,0
	c0-6.189,5.017-11.205,11.205-11.205h262.034c6.189,0,11.205,5.017,11.205,11.205l0,0
	C398.222,355.28,393.206,360.296,387.017,360.296z"/>
<path style="fill:#FFC61B;" d="M387.017,337.886H255.426v22.411h131.591c6.189,0,11.205-5.017,11.205-11.205
	S393.206,337.886,387.017,337.886z"/>
<g>
</g>
<g>
</g>
<g>
</g>
<g>
</g>
<g>
</g>
<g>
</g>
<g>
</g>
<g>
</g>
<g>
</g>
<g>
</g>
<g>
</g>
<g>
</g>
<g>
</g>
<g>
</g>
<g>
</g>
</svg>
