<?xml version="1.0" encoding="iso-8859-1"?>
<!-- Generator: Adobe Illustrator 19.0.0, SVG Export Plug-In . SVG Version: 6.00 Build 0)  -->
<svg version="1.1" id="Layer_1" xmlns="http://www.w3.org/2000/svg" xmlns:xlink="http://www.w3.org/1999/xlink" x="0px" y="0px"
	 viewBox="0 0 512 512" style="enable-background:new 0 0 512 512;" xml:space="preserve">
<circle style="fill:#FFEDB5;" cx="256" cy="256" r="256"/>
<path style="fill:#FEE187;" d="M512,256c0-2.741-0.059-5.468-0.143-8.189l-94.486-95.466l-67.131,71.763l-126.055-71.852
	L94.646,207.036l130.939,130.522l-96.29,51.914L251.77,511.947c1.408,0.022,2.815,0.053,4.23,0.053C397.384,512,512,397.384,512,256
	z"/>
<path style="fill:#FF314F;" d="M360.882,398.222H151.116c-17.461,0-31.616-14.155-31.616-31.616V152.523L256,97.923l136.501,54.6
	v214.083C392.501,384.067,378.344,398.222,360.882,398.222z"/>
<g>
	<path style="fill:#A30F44;" d="M256,97.923v300.299h104.882c17.461,0,31.616-14.155,31.616-31.616V152.523L256,97.923z"/>
	<path style="fill:#A30F44;" d="M250.49,88.545L99.871,148.792c-5.632,2.253-9.326,7.708-9.326,13.774v34.225
		c0,10.495,10.6,17.672,20.346,13.774l139.6-55.841c3.537-1.415,7.482-1.415,11.019,0l139.6,55.841
		c9.745,3.898,20.346-3.279,20.346-13.774v-34.225c0-6.066-3.693-11.521-9.326-13.774L261.51,88.545
		C257.972,87.13,254.028,87.13,250.49,88.545z"/>
</g>
<path style="fill:#820B3B;" d="M412.129,148.792L261.51,88.545c-1.769-0.707-3.639-1.062-5.51-1.062v66.182
	c1.87,0,3.741,0.353,5.51,1.062l139.6,55.841c9.745,3.898,20.346-3.279,20.346-13.774v-34.228
	C421.454,156.5,417.761,151.045,412.129,148.792z"/>
<path style="fill:#FFFFFF;" d="M252.985,339.737c1.443,2.129,4.586,2.129,6.029,0c11.524-17.001,52.152-38.114,52.152-65.452
	c0-18.853-12.348-27.583-27.582-27.583S256,259.051,256,274.285c0-15.234-12.348-27.583-27.583-27.583
	c-15.234,0-27.582,8.73-27.582,27.583C200.835,301.621,241.462,322.736,252.985,339.737z"/>
<path style="fill:#FFAD9E;" d="M283.582,246.703c-15.231,0-27.576,12.343-27.582,27.572v67.058c1.146,0,2.293-0.533,3.013-1.596
	c11.524-17.001,52.152-38.114,52.152-65.452C311.165,255.433,298.815,246.703,283.582,246.703z"/>
<g>
</g>
<g>
</g>
<g>
</g>
<g>
</g>
<g>
</g>
<g>
</g>
<g>
</g>
<g>
</g>
<g>
</g>
<g>
</g>
<g>
</g>
<g>
</g>
<g>
</g>
<g>
</g>
<g>
</g>
</svg>
