<?xml version="1.0" encoding="iso-8859-1"?>
<!-- Generator: Adobe Illustrator 19.0.0, SVG Export Plug-In . SVG Version: 6.00 Build 0)  -->
<svg version="1.1" id="Layer_1" xmlns="http://www.w3.org/2000/svg" xmlns:xlink="http://www.w3.org/1999/xlink" x="0px" y="0px"
	 viewBox="0 0 512 512" style="enable-background:new 0 0 512 512;" xml:space="preserve">
<circle style="fill:#273B7A;" cx="256" cy="256" r="256"/>
<path style="fill:#121149;" d="M146.775,391.792l119.967,119.967c133.501-5.513,240.6-113.252,245.093-247.015L380.121,133.03
	L146.775,391.792z"/>
<path style="fill:#FFFFFF;" d="M354.859,397.071H157.141c-7.097,0-12.85-5.753-12.85-12.85V211.327c0-7.097,5.753-12.85,12.85-12.85
	h197.716c7.097,0,12.85,5.753,12.85,12.85v172.892C367.709,391.316,361.956,397.071,354.859,397.071z"/>
<path style="fill:#D0D1D3;" d="M354.859,198.477H255.5v198.594h99.359c7.097,0,12.85-5.753,12.85-12.85V211.327
	C367.709,204.229,361.955,198.477,354.859,198.477z"/>
<path style="fill:#FF314F;" d="M252.871,364.439c1.279,1.888,4.065,1.888,5.344,0c10.214-15.07,46.225-33.783,46.225-58.013
	c0-16.71-10.945-24.448-24.448-24.448c-13.502,0-24.448,10.945-24.448,24.448c0-13.502-10.945-24.448-24.448-24.448
	c-13.503,0-24.448,7.739-24.448,24.448C206.646,330.655,242.657,349.368,252.871,364.439z"/>
<path style="fill:#A30F44;" d="M279.992,281.976c-13.502,0-24.448,10.945-24.448,24.448c0-0.06-0.009-0.117-0.009-0.178v59.604
	c1.019,0.003,2.039-0.467,2.681-1.414c10.214-15.07,46.225-33.783,46.225-58.013C304.438,289.714,293.493,281.976,279.992,281.976z"
	/>
<path style="fill:#FF5419;" d="M330.473,133.03h-49.648h-49.648h-49.648h-49.648v99.297c0,13.71,11.114,24.824,24.824,24.824
	c13.71,0,24.824-11.114,24.824-24.824c0,13.71,11.114,24.824,24.824,24.824c13.71,0,24.824-11.114,24.824-24.824
	c0,13.71,11.114,24.824,24.824,24.824s24.824-11.114,24.824-24.824c0,13.71,11.114,24.824,24.824,24.824
	s24.824-11.114,24.824-24.824c0,13.71,11.114,24.824,24.824,24.824c13.71,0,24.824-11.114,24.824-24.824V133.03L330.473,133.03
	L330.473,133.03z"/>
<path style="fill:#E09112;" d="M156.703,257.152L156.703,257.152c-13.71,0-24.824-11.114-24.824-24.824V133.03h49.648v99.297
	C181.527,246.038,170.413,257.152,156.703,257.152z"/>
<g>
	<path style="fill:#FF5419;" d="M355.297,257.152L355.297,257.152c-13.71,0-24.824-11.114-24.824-24.824V133.03h49.648v99.297
		C380.121,246.038,369.007,257.152,355.297,257.152z"/>
	<path style="fill:#FF5419;" d="M206.352,257.152L206.352,257.152c-13.71,0-24.824-11.114-24.824-24.824V133.03h49.648v99.297
		C231.176,246.038,220.062,257.152,206.352,257.152z"/>
</g>
<path style="fill:#E09112;" d="M256,257.152L256,257.152c-13.71,0-24.824-11.114-24.824-24.824V133.03h49.648v99.297
	C280.824,246.038,269.71,257.152,256,257.152z"/>
<path style="fill:#FF5419;" d="M255.498,133.03v124.095c0.169,0.003,0.333,0.026,0.502,0.026c13.71,0,24.824-11.114,24.824-24.824
	V133.03L255.498,133.03L255.498,133.03z"/>
<path style="fill:#C92F00;" d="M305.648,257.152L305.648,257.152c-13.71,0-24.824-11.114-24.824-24.824V133.03h49.648v99.297
	C330.473,246.038,319.359,257.152,305.648,257.152z"/>
<g>
</g>
<g>
</g>
<g>
</g>
<g>
</g>
<g>
</g>
<g>
</g>
<g>
</g>
<g>
</g>
<g>
</g>
<g>
</g>
<g>
</g>
<g>
</g>
<g>
</g>
<g>
</g>
<g>
</g>
</svg>
