<?xml version="1.0" encoding="iso-8859-1"?>
<!-- Generator: Adobe Illustrator 19.0.0, SVG Export Plug-In . SVG Version: 6.00 Build 0)  -->
<svg version="1.1" id="Layer_1" xmlns="http://www.w3.org/2000/svg" xmlns:xlink="http://www.w3.org/1999/xlink" x="0px" y="0px"
	 viewBox="0 0 512 512" style="enable-background:new 0 0 512 512;" xml:space="preserve">
<circle style="fill:#273B7A;" cx="256" cy="256" r="256"/>
<path style="fill:#121149;" d="M225.89,396.526L330.374,501.01c89.352-27.089,158.032-101.702,176.618-194.431l-142.46-142.46
	l-15.524,20.975l-88.742-88.51l-15.925,35.35l-122.182,87.178l-8.011,27.12l142.071,140.684l-0.007,0.726L225.89,396.526z"/>
<path style="fill:#FFC61B;" d="M241.778,404.256c-11.169,0-20.256-9.087-20.256-20.256v-14.222c0-3.332,2.701-6.034,6.034-6.034
	c3.332,0,6.034,2.701,6.034,6.034V384c0,4.515,3.674,8.189,8.189,8.189c4.515,0,8.189-3.674,8.189-8.189V100.848
	c0-3.332,2.701-6.034,6.034-6.034s6.034,2.701,6.034,6.034V384C262.034,395.169,252.945,404.256,241.778,404.256z"/>
<path style="fill:#EAA22F;" d="M256,94.815c-0.197,0-0.383,0.04-0.574,0.059v304.05c4.049-3.706,6.608-9.014,6.608-14.924V100.848
	C262.034,97.516,259.332,94.815,256,94.815z"/>
<path style="fill:#FF7F4F;" d="M369.778,227.556c12.271,0,22.697,7.787,26.686,18.675h1.388
	C392.826,172.246,331.261,113.778,256,113.778s-136.826,58.468-141.852,132.453h1.388c3.989-10.888,14.414-18.675,26.686-18.675
	s22.697,7.787,26.686,18.675h3.517c3.989-10.89,14.415-18.675,26.686-18.675s22.697,7.787,26.686,18.675h3.517
	c3.989-10.89,14.415-18.675,26.686-18.675s22.697,7.787,26.686,18.675h3.517c3.989-10.89,14.415-18.675,26.686-18.675
	s22.697,7.787,26.686,18.675h3.517C347.081,235.342,357.505,227.556,369.778,227.556z"/>
<path style="fill:#D35933;" d="M256,113.778c-0.048,0-0.095,0.003-0.143,0.003v113.779c0.048,0,0.095-0.005,0.143-0.005
	c12.271,0,22.697,7.787,26.686,18.675h3.517c3.989-10.89,14.415-18.675,26.686-18.675s22.697,7.787,26.686,18.675h3.517
	c3.989-10.89,14.415-18.675,26.686-18.675s22.697,7.787,26.686,18.675h1.388C392.826,172.246,331.261,113.778,256,113.778z"/>
<path style="fill:#FFFFFF;" d="M340.499,246.231h0.834c-3.022-73.985-40.06-132.453-85.333-132.453s-82.311,58.468-85.333,132.453
	h0.834h0.924c3.989-10.89,14.415-18.675,26.686-18.675c12.271,0,22.697,7.787,26.686,18.675h3.517
	c3.989-10.89,14.415-18.675,26.686-18.675s22.697,7.787,26.686,18.675h3.517c3.989-10.89,14.415-18.675,26.686-18.675
	s22.697,7.787,26.686,18.675L340.499,246.231L340.499,246.231z"/>
<path style="fill:#D0D1D3;" d="M256,113.778c-0.048,0-0.095,0.005-0.143,0.005v113.778c0.048,0,0.095-0.005,0.143-0.005
	c12.271,0,22.697,7.787,26.686,18.675h3.517c3.989-10.89,14.415-18.675,26.686-18.675s22.697,7.787,26.686,18.675h0.924h0.834
	C338.311,172.246,301.273,113.778,256,113.778z"/>
<path style="fill:#FF7F4F;" d="M284.444,246.231c-1.008-73.985-13.353-132.453-28.444-132.453
	c-15.091,0-27.438,58.468-28.444,132.453h1.758c3.989-10.89,14.415-18.675,26.686-18.675c12.271,0,22.697,7.787,26.686,18.675
	L284.444,246.231L284.444,246.231z"/>
<path style="fill:#D35933;" d="M256,113.778c-0.048,0-0.095,0.016-0.143,0.017v113.766c0.048,0,0.095-0.005,0.143-0.005
	c12.271,0,22.697,7.787,26.686,18.675h1.758C283.436,172.246,271.091,113.778,256,113.778z"/>
<g>
</g>
<g>
</g>
<g>
</g>
<g>
</g>
<g>
</g>
<g>
</g>
<g>
</g>
<g>
</g>
<g>
</g>
<g>
</g>
<g>
</g>
<g>
</g>
<g>
</g>
<g>
</g>
<g>
</g>
</svg>
